/* XPM */
static char *bf290ece2132403bb3d68e1e2db4d7edzpkKasZFU1jvINfR[] = {
/* columns rows colors chars-per-pixel */
"64 64 52 1 ",
"  c #3B526F",
". c #3D536F",
"X c #3F556E",
"o c #2E4773",
"O c #2F4774",
"+ c #2E4775",
"@ c #2F4873",
"# c #2F4874",
"$ c #304873",
"% c #324A73",
"& c #344C71",
"* c #374E71",
"= c #344C72",
"- c #304974",
"; c #384F70",
": c #394F70",
"> c #3B5170",
", c #6E7B5D",
"< c #737F5B",
"1 c #41566D",
"2 c #475B6B",
"3 c #43586D",
"4 c #465A6C",
"5 c #495D6A",
"6 c #485C6B",
"7 c #495D6B",
"8 c #4D6069",
"9 c #4F6268",
"0 c #536567",
"q c #556766",
"w c #576865",
"e c #5C6D63",
"r c #5A6B64",
"t c #606F62",
"y c #627161",
"u c #607062",
"i c #647360",
"p c #7E8857",
"a c #BBB93F",
"s c #CEC938",
"d c #D0CA37",
"f c #9A9F4B",
"g c #9B9F4B",
"h c #808956",
"j c #828C55",
"k c #878F54",
"l c #889053",
"z c #8D9450",
"x c #ACAD45",
"c c #A4A648",
"v c #B3B342",
"b c #BAB840",
/* pixels */
"++++++++++++++++++++++++++o+++++++++++++++++++++++++++++++++++++",
"+++++++++++++++++++++++++%2Xo+++++++++++++++++++++++++++++++++++",
"+++++++++++++++++++++++++*py++++++++++++++++++++++++++++++++++++",
"+++++++++++++++++++++++++%;*o+++++++++++++++++++++++++++++++++++",
"++++++++++++++++++++++++++++++++++++++++++++++++++++++++++++++++",
"++++++++++++++++++++++++++++++++++++++++++++++++o+++++++++++++++",
"+++++++++++++++++++++++++++++++++++++++++++++++X5%++++++++++++++",
"++++++++-.;+++++++++++++++++++++++++++++++++++%jx.++++++++++++++",
"++++++++5da*+++++++++++++++++++++++++++++++++++5e%++++++++++++++",
"++++++++2sa:+++++++++++++++++++++++++++++++++++o%+++++++++++++++",
"++++++++- ;+++++++++++++++++++++++++++++++++++++++++++++++++++++",
"++++++++++++++++++++++++++++++++++++++++++++++++++++++++++++++++",
"++++++++++++++++++++++o*%+++++++++++++++++++++++++++++++++++++++",
"+++++++++++++++++++++o9vp%++++++++++++++++++++++++++++++++++++++",
"++++++++++++++++++++++tdc%++++++++++++++++++++++++++++++++++++++",
"++++++++++++++++++++++%2:+++++++++++++++++++++++++++++++++++++++",
"++++++++++++++++++++++++++++++++++++++++++++++++++++++++++++++++",
"++++++++++++++++++++++++++++++++++++++++++++++++++++++++++++++++",
"++++++++++++++++++++++++++++++++++++++++++++++++++++++++++++++++",
"++++++++++++++++++++++++++++++++++++++#%*@++++++++++%1%+++++++++",
"++++++++++++++++++++++++++++++++++++++#,fX++++++++++6z1o++++++++",
"++++++++++++++++++++++++++++++++++++++#yz>++++++++++&6%+++++++++",
"+++++%*+++++++++++++++++++++++++++++++o+%o++++++++++++++++++++++",
"++++o0ro++++++++++++++++++++++++++++++++++++++++++++++++++++++++",
"++++o*.o++++++++++++++++++++++++++++++++++++++++++++++++++++++++",
"++++++++++++++++++++++++++++++++++++++++++++++++++++++++++++++++",
"++++++++++++++++++++++++++++++++++++++++++++++++++++++++++++++++",
"+++++++++++++++++++++++++++++++++++++++++++++++++++++++++++++#*o",
"+++++++++++++++++++++++++++++++++++++++++++++++++++++++++++++5l3",
"++++++++++++++++++++++++++++++++++++++++++++++++++++++++++++o;w*",
"++++++++++++++++++++++++++++++++++++++++++++++++++++++++++++++++",
"++++++++++++++++++++++++++++++++++++++++++++++++++++++++++++++++",
"+++++++++++o++++++++++++++++++++++++++++++++++++++++++++++++++++",
"++++++++++oo++++++++++++++++++++++++++++++++++++++++++++++++++++",
"+++++++++oqq%++++++++++++++++++++++++++++++++++++#++++++++++++++",
"+++++++++opk%++++++++++++++++++++++++++++++++++o+@++++++++++++++",
"+++++++++o**++++++++++++++++++++**o++++++++++++%y8++++++++++++++",
"+++++++++++++++++++++++++++++++owr@++++++++++++%,r@+++++++++++++",
"++++++++++++++++++++++++++++++++=*++++++++++++++-+++++++++++++++",
"++++++++++++++++++++++++++++++++++++++++++++++++#+++++++++++++++",
"++++++++++++++++++++++++++++++++++++++++++++++++++++++++++++++++",
"++++++++++++++++++++++++++++++++++++++++++++++++++++++++++++++++",
"++++++++++++++++++++%%++++++++++++++++++++++++++++++++++++++++++",
"+++++++++++++++++++o2t%+++++++++++++++++++++++++++++++++++++++++",
"+++++++++++++++++++o>4++++++++++++++++++++++++++++++++++++++++++",
"+++++++++++++++++++++o++++++++++++++++++++++++++++++++++++++++++",
"++++++++++++++++++++++++++++++++++++++++++++++++++++++++++++++++",
"++++++++++++++++++++++++++++++++++++++++++++++++++++++++++++++++",
"++++++++++++++++++++++++++++++++++++++++++++++++++++++++++++++++",
"++++++++++++++++++++++++++++++++++++o+++++++++++++++++++++++++++",
"++++++++++++++++++++++++++++++++++o.<2o+++++++++++++++++++++++++",
"+++++++++++++++++++++++++++++++++++2fe++++++++++++++++++++++++++",
"+++++++++++++++++++++++++++++++++++o*%o+++++++++++++++++++++++++",
"++++++++++++++++++++++++++++++++++++++++++++++++++++++++++++++++",
"++++++++++++++++++++++++++++++++++++++++++++++++++++++++++++++++",
"++++++++++++++++++++++++++++++++++++++++++++++++++++++++++++++++",
"++++++++++++++++++++++++++++++++++++++++++++++++++++++++++++++++",
"++++++++++++++++++++++++++++++++++++++++++++++++++++++++++++++++",
"++++++++++++++++++++++++++++++++++++++++++++++++++++++++++++o+o+",
"+++++++++++oo++++++++++++++++++++++++++++++++++++++++++++++@rr%+",
"+++++++++++.e&++++++++++++++++++++++++++++++++++++++++++++++t,%+",
"+++++++++++;9&+++++++++++++++++++++++++++++++++++++++++++++o%%++",
"++++++++++++++++++++++++++++++++++++++++++++++++++++++++++++++++",
"++++++++++++++++++++++++++++++++++++++++++++++++++++++++++++++++"
};
