/* XPM */
static char *b7730fa11c9c4551bb3fe22a10618a65wtbK0up3K5Scy29o[] = {
/* columns rows colors chars-per-pixel */
"64 64 230 2 ",
"   c black",
".  c #010101",
"X  c #020202",
"o  c gray1",
"O  c #040404",
"+  c gray2",
"@  c #060606",
"#  c #070707",
"$  c gray3",
"%  c #090909",
"&  c gray4",
"*  c #0B0B0B",
"=  c #0C0C0C",
"-  c gray5",
";  c #0E0E0E",
":  c gray6",
">  c #101010",
",  c #111111",
"<  c gray7",
"1  c gray8",
"2  c #151515",
"3  c #161616",
"4  c gray9",
"5  c #181818",
"6  c #191919",
"7  c #1B1B1B",
"8  c gray11",
"9  c #1D1D1D",
"0  c gray12",
"q  c #202020",
"w  c gray13",
"e  c #222222",
"r  c #232323",
"t  c gray14",
"y  c #252525",
"u  c gray15",
"i  c #272727",
"p  c #282828",
"a  c gray16",
"s  c #2A2A2A",
"d  c gray17",
"f  c #2C2C2C",
"g  c #2D2D2D",
"h  c gray18",
"j  c #2F2F2F",
"k  c gray19",
"l  c #313131",
"z  c #323232",
"x  c gray20",
"c  c #343434",
"v  c #353535",
"b  c gray21",
"n  c #373737",
"m  c gray22",
"M  c #393939",
"N  c #3A3A3A",
"B  c gray23",
"V  c #3C3C3C",
"C  c gray24",
"Z  c #3E3E3E",
"A  c #3F3F3F",
"S  c gray25",
"D  c #414141",
"F  c gray26",
"G  c #434343",
"H  c #444444",
"J  c gray27",
"K  c #464646",
"L  c gray28",
"P  c #484848",
"I  c #494949",
"U  c gray29",
"Y  c #4B4B4B",
"T  c #4C4C4C",
"R  c gray30",
"E  c #4E4E4E",
"W  c gray31",
"Q  c #505050",
"!  c #515151",
"~  c gray32",
"^  c #535353",
"/  c gray33",
"(  c #555555",
")  c #565656",
"_  c gray34",
"`  c #585858",
"'  c gray35",
"]  c #5A5A5A",
"[  c #5B5B5B",
"{  c gray36",
"}  c #5D5D5D",
"|  c gray37",
" . c #5F5F5F",
".. c gray38",
"X. c gray39",
"o. c #646464",
"O. c #656565",
"+. c #676767",
"@. c DimGray",
"#. c #6A6A6A",
"$. c gray42",
"%. c #6D6D6D",
"&. c gray43",
"*. c gray44",
"=. c #727272",
"-. c #747474",
";. c gray46",
":. c #767676",
">. c #777777",
",. c gray47",
"<. c #797979",
"1. c gray48",
"2. c #7B7B7B",
"3. c #7C7C7C",
"4. c #7E7E7E",
"5. c gray50",
"6. c #808080",
"7. c #818181",
"8. c gray51",
"9. c #838383",
"0. c #848484",
"q. c gray52",
"w. c gray53",
"e. c #888888",
"r. c #898989",
"t. c gray54",
"y. c #8B8B8B",
"u. c gray55",
"i. c #8D8D8D",
"p. c #8E8E8E",
"a. c gray56",
"s. c #909090",
"d. c gray57",
"f. c #929292",
"g. c #939393",
"h. c gray58",
"j. c #959595",
"k. c gray59",
"l. c #979797",
"z. c #989898",
"x. c gray60",
"c. c #9A9A9A",
"v. c #9B9B9B",
"b. c gray61",
"n. c #9F9F9F",
"m. c gray63",
"M. c #A2A2A2",
"N. c #A4A4A4",
"B. c #A5A5A5",
"V. c gray65",
"C. c #A7A7A7",
"Z. c gray66",
"A. c #A9A9A9",
"S. c #ACACAC",
"D. c gray68",
"F. c gray69",
"G. c #B1B1B1",
"H. c #B2B2B2",
"J. c gray70",
"K. c gray71",
"L. c #B6B6B6",
"P. c #B7B7B7",
"I. c #B9B9B9",
"U. c gray73",
"Y. c #BCBCBC",
"T. c gray74",
"R. c gray",
"E. c gray75",
"W. c #C0C0C0",
"Q. c #C1C1C1",
"!. c gray76",
"~. c #C3C3C3",
"^. c gray77",
"/. c #C5C5C5",
"(. c #C6C6C6",
"). c gray78",
"_. c #C8C8C8",
"`. c gray79",
"'. c #CACACA",
"]. c #CBCBCB",
"[. c gray80",
"{. c #CDCDCD",
"}. c #CECECE",
"|. c gray81",
" X c #D0D0D0",
".X c gray82",
"XX c #D2D2D2",
"oX c LightGray",
"OX c gray83",
"+X c #D5D5D5",
"@X c gray84",
"#X c #D7D7D7",
"$X c #D8D8D8",
"%X c #DADADA",
"&X c gray86",
"*X c gainsboro",
"=X c gray87",
"-X c #DFDFDF",
";X c gray88",
":X c #E1E1E1",
">X c #E2E2E2",
",X c gray89",
"<X c #E4E4E4",
"1X c gray90",
"2X c #E6E6E6",
"3X c #E7E7E7",
"4X c gray91",
"5X c #E9E9E9",
"6X c #EAEAEA",
"7X c gray92",
"8X c #ECECEC",
"9X c gray93",
"0X c #EEEEEE",
"qX c #EFEFEF",
"wX c gray94",
"eX c #F1F1F1",
"rX c gray95",
"tX c #F3F3F3",
"yX c #F4F4F4",
"uX c gray96",
"iX c #F6F6F6",
"pX c gray97",
"aX c #F8F8F8",
"sX c #F9F9F9",
"dX c gray98",
"fX c #FBFBFB",
"gX c gray99",
"hX c #FDFDFD",
"jX c #FEFEFE",
"kX c white",
/* pixels */
"kXkXkXkXkXkXkXkXkXkXkXkXkXkXkXkXkXkXkXkXkXkXkXkXkXkXkXkXkXkXkXkXyXkXkXkXkXkXkXkXkXkXkXfXfXkXkXkXkXkXkXkXkXkXkXkXkXkXkXkXkXkXkXkX",
"kXkXkXkXkXkXkXkXkXkXkXkXkXkXkXkXkXkXkXkXkXkXkXkXkXkXkXkXkXkXkXkXkXkXkXfXfXfXkXkXkXkXkXkXkXyXfXkXkXkXkXkXkXkXkXkXkXkXkXkXkXkXkXkX",
"kXkXkXkXkXkXkXkXkXkXkXkXkXkXkXkXkXkXkXkXkXkXkXkXkXkXkXkXkXkXkXkXkXkXkXfXkXkXkXkXfXyXfXkXkXfXfXkXkXkXkXkXkXkXkXkXkXkXkXkXkXkXkXkX",
"kXkXkXkXkXkXkXkXkXkXkXkXkXkXkXkXkXkXkXkXkXkXkXkXkXkXkXkXkXkXkXkXkXkXkXkXkXkXkXfXkXkXkXkXkXkXfXfXkXkXkXkXkXkXkXkXkXkXkXkXkXkXkXkX",
"kXkXkXkXkXkXkXkXkXkXkXkXkXkXkXkXkXkXkXkXkXkXkXkXkXkXkXkXkXkXkXkXkXkXkXkXkXfXfXyXfXkXkXfXfXkXkXkXkXkXkXkXkXkXkXkXkXkXkXkXkXkXkXkX",
"kXkXkXkXkXkXkXkXkXkXkXkXkXkXkXkXkXkXkXkXkXkXkXkXkXkXkXkXkXkXkXkXkXkXfXfXkXkXkXkXyXkXkXkXkXfXkXkXkXkXkXkXkXkXkXkXkXkXkXkXkXkXkXkX",
"kXkXkXkXkXkXkXkXkXkXkXkXkXkXkXkXkXkXkXkXkXkXkXkXkXkXkXkXkXkXkXkXkXfXkXkXkXkXyXeX5X#X$XeXkXfXyXkXkXkXkXkXkXkXkXkXkXkXkXkXkXkXkXkX",
"kXkXkXkXkXkXkXkXkXkXkXkXkXkXkXkXkXkXkXkXkXkXkXkXkXkXkXkXkXkXkXkXkXkXkXkXyX1X{.I.:.Y ) B.eXkXfXkXkXkXkXkXkXkXkXkXkXkXkXkXkXkXkXkX",
"kXkXkXkXkXkXkXkXkXkXkXkXkXkXkXkXfXkXkXkXkXfXfXkXkXkXeXfXkXkXyXfX1X*X{.I.z.&.A 0 $     b z.eXkXfXkXkXkXkXkXkXkXkXkXkXkXkXkXkXkXkX",
"kXkXkXkXkXkXkXkXkXkXkXkXkXkXkXkXfXkXkXfXkXyX*X].]..X].].Q.Y.Z.m.w.=.R j >         $     R Y.kXkXkXkXkXkXkXkXkXkXkXkXkXkXkXkXkXkX",
"kXkXkXkXkXkXkXkXkXkXkXkXkXkXkXkXkXfXkXkX5Xk.] ! N N z i i e >               O O   O O > { #XkXkXkXkXkXkXkXkXkXkXkXkXkXkXkXkXkXkX",
"kXkXkXkXkXkXkXkXkXkXkXkXkXkXkXkXkXfXkXkX1X=.4   $   O           $ $ $ O $ 4 i j z A ) 3.K.qXkXyXkXkXkXkXkXkXkXkXkXkXkXkXkXkXkXkX",
"kXkXkXkXkXkXkXkXkXkXkXkXkXkXkXkXkXkXkXkXkX.X<.z O     O   $ i j j z A R O.3.g.B.{.$XqXkXkXkXkXkXkXkXkXkXkXkXkXkXkXkXkXkXkXkXkXkX",
"kXkXkXkXkXkXkXkXkXkXkXkXkXkXkXkXkXkXyXyXkXkX;XI.O.b     $ { g.z.Q.{.1XfXkXkXkXkXkXkXkXkXkXfXfXyXkXkXkXkXkXkXkXkXkXkXkXkXkXkXkXkX",
"kXkXkXkXkXkXkXkXkXkXkXkXkXkXkXkXkXkXkXfXkXfXyXkX1Xz.e   = G.fXyXfXfXkXkXkXkXkXfXfXfXfXyXkXkXkXkXkXkXkXkXkXkXkXkXkXkXkXkXkXkXkXkX",
"kXkXkXkXkXkXkXkXkXkXkXkXkXkXkXkXeXkXkXfXkXkXkXkXkX$X) >   G.kXkXkXkXkXfXkXkXkXkXkXkXkXkXfXyXfXkXkXkXkXkXkXkXkXkXkXkXkXkXkXkXkXkX",
"kXkXkXkXkXkXkXkXkXkXkXkXkXkXkXkXkXkXkXkXkXkXkXkXfXkX{ 4 $ I.yXkXkXkXkXkXkXfXkXkXkXyXkXkXfXkXkXfXkXkXkXkXkXkXkXkXkXkXkXkXkXkXkXkX",
"kXkXkXkXkXkXkXkXkXkXkXkXkXkXkXkXkXkXkXkXkXkXkXkXkXyX{ >   Y.kXkXkXkXkXkXkXkXkXfXkXqXyXeXfXkXyXkXkXkXkXkXkXkXkXkXkXkXkXkXkXkXkXkX",
"kXkXkXkXkXkXkXkXkXkXkXkXkXkXkXkXkXkXkXkXkXkXkXkXkX].R     K.kXfXkXfXeXyXeXqX;X$XG.k.p.m.$XkXkXkXkXkXkXkXkXkXkXkXkXkXkXkXkXkXkXkX",
"kXkXkXkXkXkXkXkXkXkXkXkXkXkXkXkXkXkXkXkXkXkXkXkXkXp.i     G.fXkXeXqX1X#XK.r.] N 4     4 #.#XkXyXkXkXkXkXkXkXkXkXkXkXkXkXkXkXkXkX",
"kXkXkXkXkXkXkXkXkXkXkXkXkXkXkXkXkXkXkXkXkXkXkXkXkX#.= O   O.p.z.p.<.! j > O         O   e G.kXkXkXkXkXkXkXkXkXkXkXkXkXkXkXkXkXkX",
"kXkXkXkXkXkXkXkXkXkXkXkXkXkXkXkXkXkXkXkXkXkXkXkXkX&.=       $ $     O       O O     =   4 Z.kXeXkXkXkXkXkXkXkXkXkXkXkXkXkXkXkXkX",
"kXkXkXkXkXkXkXkXkXkXkXkXkXkXkXkXkXkXkXkXkXkXkXkXyXg.s O O           O         O 4 0 b A 3.1XkXkXkXkXkXkXkXkXkXkXkXkXkXkXkXkXkXkX",
"kXkXkXkXkXkXkXkXkXkXkXkXkXkXkXkXkXkXkXkXkXkXkXkXkX^.R $ O   = $ 4 4 i z N L ! ] :.k.D.Q.yXkXqXkXkXkXkXkXkXkXkXkXkXkXkXkXkXkXkXkX",
"kXkXkXkXkXkXkXkXkXkXkXkXkXkXkXkXkXkXkXkXkXkXkXkXkXqXK.X.z b Y ) O.] <.p.Q.1XkXyXkXfXfXkXkXkXkXkXkXkXkXkXkXkXkXkXkXkXkXkXkXkXkXkX",
"kXkXkXkXkXkXkXkXkXkXkXkXkXkXkXkXkXkXkXkXkXkXkXkXkXkXkX1X$X;XqXeX;X:.! O.g.Q.eXkXkXkXkXkXkXfXkXkXeXfXkXkXkXkXkXeXkXkXkXkXkXkXkXkX",
"kXkXkXkXkXkXkXfXfXfXfXfXkXkXkXkXkXfXfXkXfXkXkXfXfXkXkXkXkXkXkXkX5XR   $ 4 F p.1XyXfXkXkXkXkXkXkXkXkXkXyXyXkXkXkXkXkXkXkXkXkXkXkX",
"kXkXkXkXkXkXkXkXkXkXkXkXkXkXkXkXkXkXkXkXkXkXkXkXkXkXkXkXkXyXfXfXkXr.e       s B.yXkXkXkXfXkXfXkXeXfXkXkXkXkXkXkXkXkXkXkXkXkXkXkX",
"kXkXkXkXkXkXkXkXkXkXkXkXkXfXfXyXfXkXkXkXfXkXkXkXkXfXkXkXkXkXkXkXkX$X#.4   O   :.qXfXkXfXfXkXkXkXkXkXkXkXkXeXyXkXkXkXkXkXkXkXkXkX",
"fXkXkXkXkXkXkXkXfXfXkXkXkXkXkXkXkXkXkXkXkXkXkXkXkXkXkXkXkXfXfXkXfXkXB.e       :.1XyXkXkXyXqX$X^.^.].$XeXkXkXkXkXkXkXkXkXkXkXkXkX",
"kXkXkXkXkXkXkXfXkXkXkXfXfXkXkXkXfXkXkXkXfXkXkXkXkXkXfXfXfXkXkXkXkXkXqX! >   $ &.^..X.XY.B.w.O.Y e b { k.#XkXkXfXkXkXkXkXkXkXkXkX",
"kXkXkXkXkXkXkXkXkXyX1X#X{.].{.{.{..X{.{.{..X{.{.^.{.{.].^.^.Q.I.Y.I.Y.Y =     N ) R b 6 $ O           6 :.*XkXfXkXkXkXkXkXkXkXkX",
"kXkXkXkXkXkXkXkXkX5Xp.F L N z R Y L F A A A A A A b j j j s e e 6 6 4 $ O                 O O     O     ! {.kXkXkXkXkXkXkXkXkXkX",
"kXkXkXkXkXkXkXkXkXqXw.0 = 6 $     O $ O   O                   O O O O > 6 0 e j s s i e 6 > O   = O O s 7.*XkXqXkXkXkXkXkXkXkXkX",
"kXkXkXkXkXkXkXkXeXkX5Xm.) 4                     6 e z N A A F L { ] { &.:.<.7.p.g.k.k.p.7.=.#.O.R Y ) w.].kXkXkXkXkXkXkXkXkXkXkX",
"kXkXkXkXkXkXkXkXfXkXkXkX$Xp.Y e > O   O 6 z Y { =.r.B.Q..X1XyXkXfXfXkXkXkXkXkXkXkXkXkXkXkXkXfXyXkXkXfXkXkXkXfXyXkXkXkXkXkXkXkXkX",
"kXkXkXkXkXkXkXkXkXfXfXyXkXkX.Xr.A s j ] r.G.#XyXfXkXkXkXkXkXkXfXkXkXkXkXkXkXkXfXfXkXkXfXkXkXkXkXfXkXkXkXyXfXkXkXkXkXkXkXkXkXkXkX",
"kXkXkXkXkXkXkXkXkXkXkXkXfXkXkXfX;X].^.1XfXyXfXkXkXkXkXyXyXkXkXfXkXkXyX5X5XyXkXkXkXkXkXkXfXkXkXfXkXkXkXkXkXkXkXkXkXkXkXkXkXkXkXkX",
"kXkXkXkXkXkXkXkXkXyXyXkXkXkXyXkXkXyXfXkXkXkXkXkXfXkXkXfXkXkXkXeX.XY.B.b.b.B.Y.$X5XfXkXkXfXfXfXfXkXfXyXfXkXkXfXyXkXkXkXkXkXkXkXkX",
"kXkXkXkXkXkXkXkXkXkXkXyXyXkXkXkXkXkXkXfXfXkXkXkXkXkXkXkXkXyX.XD.! i         i ] I.$XfXkXfXkXkXkXkXkXkXkXkXfXkXkXkXkXkXkXkXkXkXkX",
"kXkXkXkXkXkXkXkXkXkXkXkXkXkXkXkXkXkXkXkXkXkXkXkXeXkXkXfXfXY.&.>                 i w..XfXkXkXkXkXkXkXkXkXkXkXkXkXkXkXkXkXkXkXkXkX",
"kXkXkXkXkXkXkXkXkXkXkXkXkXkXkXkXkXkXkXkXkXkXkXkXkXyXkXkX#X{ > $ O = 6 j s 0 = $   6 O.Q.kXkXfXkXkXkXkXkXkXkXkXkXkXkXkXkXkXkXkXkX",
"kXkXkXkXkXkXkXkXkXkXkXkXkXkXkXkXkXkXkXkXkXkXkXkXkXfXkX#X<.0   = e X.k.B.B.z.X.i =   6 3.yXkXkXkXkXkXkXkXkXkXkXkXkXkXkXkXkXkXkXkX",
"kXkXkXkXkXkXkXkXkXkXkXkXkXkXkXkXkXkXkXkXkXkXkXkXeXkXkXz.s O   Y G.5XkXkXkXkX5XK.Y     z Z.5XkXfXkXkXkXkXkXkXkXkXkXkXkXkXkXkXkXkX",
"kXkXkXkXkXkXkXkXkXkXkXkXkXkXkXkXkXkXkXkXkXkXkXkXkXkXyX<.$   j B.kXyXyXkXfXyXyXkXb.A O   #.$XkXfXkXkXkXkXkXkXkXkXkXkXkXkXkXkXkXkX",
"kXkXkXkXkXkXkXkXkXkXkXkXkXkXkXkXkXkXkXkXkXkXkXkXkXkX1X]     #.1XkXkXkXkXkXkXkXkXyX:.4   R #XkXkXkXkXkXkXkXkXkXkXkXkXkXkXkXkXkXkX",
"kXkXkXkXkXkXkXkXkXkXkXkXkXkXkXkXkXkXkXkXkXkXkXkXyXkX;XF   $ p.eXyXkXkXyXyXkXkXfXkXg.i   i Q.eXfXkXkXkXkXkXkXkXkXkXkXkXkXkXkXkXkX",
"kXkXkXkXkXkXkXkXkXkXkXkXkXkXkXkXkXkXkXkXkXkXkXkXkXkX*XF $   p.1XkXkXfXkXkXkXkXkXkXB.N   O Q.fXkXkXkXkXkXkXkXkXkXkXkXkXkXkXkXkXkX",
"kXkXkXkXkXkXkXkXkXkXkXkXkXkXkXkXkXkXkXkXkXkXkXkXkXyXyX&.  $ Y ].kXfXyXkXkXkXkXfXkXr.e O e {.fXkXkXkXkXkXkXkXkXkXkXkXkXkXkXkXkXkX",
"kXkXkXkXkXkXkXkXkXkXkXkXkXkXkXkXkXkXkXkXkXkXkXkXkXkXkXr.4   0 :.1XkXkXfXeXfXkXkX5X{ O   L ].yXkXkXkXkXkXkXkXkXkXkXkXkXkXkXkXkXkX",
"kXkXkXkXkXkXkXkXkXkXkXkXkXkXkXkXkXkXkXkXkXkXkXkXfXkXkX^.] $   i 3.^.kXkXkXkXyX*X:.i $   :.$XkXkXkXkXkXkXkXkXkXkXkXkXkXkXkXkXkXkX",
"kXkXkXkXkXkXkXkXkXkXkXkXkXkXkXkXkXkXkXkXkXkXkXkXkXfXkXkXK.A     > ) z.K.^.].m.#.0   $ i G.yXkXfXkXkXkXkXkXkXkXkXkXkXkXkXkXkXkXkX",
"kXkXkXkXkXkXkXkXkXkXkXkXkXkXkXkXkXkXkXkXkXkXkXkXkXkXfXkXqXp.N       = e z b 0   =   > :.qXkXeXkXkXkXkXkXkXkXkXkXkXkXkXkXkXkXkXkX",
"kXkXkXkXkXkXkXkXkXkXkXkXkXkXkXkXkXkXkXkXkXkXkXkXfXkXkXkXkX;Xz.L 6 O               i #.{.kXkXeXkXkXkXkXkXkXkXkXkXkXkXkXkXkXkXkXkX",
"kXkXkXkXkXkXkXkXkXkXkXkXkXkXkXkXkXkXkXkXkXkXkXkXyXkXkXyXkXkX5XI.R s > = $   O 6 j r.#XkXfXkXfXkXkXkXkXkXkXkXkXkXkXkXkXkXkXkXkXkX",
"kXkXkXkXkXkXkXkXkXkXkXkXkXkXkXkXkXkXkXkXkXkXkXkXkXkXkXyXfXkXkXkX;XB.#.R A N ! &.Y.;XkXkXkXfXkXkXkXkXkXkXkXkXkXkXkXkXkXkXkXkXkXkX",
"kXkXkXkXkXkXkXkXkXkXkXkXkXkXkXkXkXkXkXkXkXkXkXkXkXkXkXkXkXkXkXkXkXkXkXyX1X;XqXfXkXkXkXkXkXkXkXkXkXkXkXkXkXkXkXkXkXkXkXkXkXkXkXkX",
"kXkXkXkXkXkXkXkXkXkXkXkXkXkXkXkXkXkXkXkXkXkXkXkXfXkXfXfXkXkXkXkXkXkXkXyXyXfXkXkXkXkXkXkXkXkXkXkXkXkXkXkXkXkXkXkXkXkXkXkXkXkXkXkX",
"kXkXkXkXkXkXkXkXkXkXkXkXkXkXkXkXkXkXkXkXkXkXkXkXkXkXkXkXkXkXkXkXkXkXkXkXkXkXkXkXkXkXkXkXkXkXkXkXkXkXkXkXkXkXkXkXkXkXkXkXkXkXkXkX",
"kXkXkXkXkXkXkXkXkXkXkXkXkXkXkXkXkXkXkXkXkXkXkXkXkXkXkXkXkXkXkXkXkXkXkXkXkXkXkXfXkXkXkXkXkXkXkXkXkXkXkXkXkXkXkXkXkXkXkXkXkXkXkXkX",
"kXkXkXkXkXkXkXkXkXkXkXkXkXkXkXkXkXkXkXkXkXkXkXkXfXkXkXfXkXkXkXkXkXkXkXkXkXkXkXkXkXkXkXkXkXkXkXkXkXkXkXkXkXkXkXkXkXkXkXkXkXkXkXkX",
"kXkXkXkXkXkXkXkXkXkXkXkXkXkXkXkXkXkXkXkXkXkXkXkXkXkXkXkXkXkXkXkXkXkXkXkXkXkXkXkXkXkXkXkXkXkXkXkXkXkXkXkXkXkXkXkXkXkXkXkXkXkXkXkX",
"kXkXkXkXkXkXkXkXkXkXkXkXkXkXkXkXkXkXkXkXkXkXkXkXkXkXkXkXkXkXkXfXkXkXkXkXkXfXfXkXkXkXkXkXkXkXkXkXkXkXkXkXkXkXkXkXkXkXkXkXkXkXkXkX",
"kXkXkXkXkXkXkXkXkXkXkXkXkXkXkXkXkXkXkXkXkXkXkXkXkXkXfXyXeXqX5X5XqX5XeXyXfXkXkXkXkXkXkXkXkXkXkXkXkXkXkXkXkXkXkXkXkXkXkXkXkXkXkXkX"
};
