/* XPM */
static char *_c32be14394b487f8fce1633600e4af0pfhz3BeHSlArLLoD[] = {
/* columns rows colors chars-per-pixel */
"64 64 17 1 ",
"  c gray75",
". c #C3C3C3",
"X c gray78",
"o c #CBCBCB",
"O c gray81",
"+ c gray82",
"@ c #D5D5D5",
"# c gray85",
"$ c #DDDDDD",
"% c #E2E2E2",
"& c #E4E4E4",
"* c gray92",
"= c #EFEFEF",
"- c #F3F3F3",
"; c gray96",
": c gray98",
"> c #FDFDFD",
/* pixels */
"$%&%#@@@$->>>>>>>::;%#@##$#$$#;::;=#O@@O@#@++#=;>>>&%$%#o+$$$$#$",
":>>:;*$$;>>>>>>>>>>>:-=&#@$$$=>>>>:;$#$$%&%+#&*;-:>-$$#$o+%$$#%-",
">>>>:;;>>>>>>>>>>>>>>>>;$$$$=>>>>>>>:%@%%&$o$&*%%=>;$$#@X@$%&-:>",
">>>>>>>>>>>>>>>>>>>>>>>>=$%%&:>>>>>>>:#%&%$o%&&%%&::$#$@X@%%->>>",
">>>>>>>>>>>>>>>>>>>>>>>>>*%*=->>>>>>>>-&%%#o$*&%%$->&#$@X#%%;>>>",
">>>>>:::>>:::>:>:>>>>>>>>;->>>>>>>::>>>*$%@o%&&%%#%>=@#+.@$%;>>>",
">>>>>:-;::---;;;-;::>>>>>:>>>>>>>::::>>=$%+X#%%%$$#&&##+ O$$&::>",
">::>>:=%%&@##$$$@#&-:>>>:>>>>>>>;=*--;=&%%+X@$%$$$#####o O@#$%%&",
"%%&:::*++@##@@@#@@@#&=;>>>>>>>>;$+#$$&%%%$Oo+#$###@@@@$@@+O+#$%@",
"##@&:>#o@$$####@#@@@@+&>:;>>>::$+@#$$%&#$%&$$@@+@@++@&;:-*$@#%%#",
"####:>&o#$#$@######@@@@;:;;:>:%+@@@@$%%$*:>:-&$$%$%%&;>>:;;*###@",
"@##=>>>$###$$###@@@@###->>===%o@#@@+$#%*::>:::-*%%$&;:::>:>-#+++",
"@#$:>>>:%###$###@@@#@@#;>>=+OO+++@@+@*:>>:>>:>::;#$&;>>>>:>:;&#X",
"@#*>>>>>:#+#%@@#@@#@++$>>>:*%++#@@@#@=>>:>:>>>:;:-;;::>:>>>>>:$O",
"@+=>>>>>>-&$#@@@@@@@#*>>>>>>>;%#@@##%:>>::>>>>:>>::>>>:>:>>>>>-O",
"&=>>>>>>>>>:&+@@+@$=>>>>>>>>>>>-&##%:>>>>>>::>>>::>>>:>>:>>>>::%",
">>>>>>:>>>>>>*Ooo&>>>>>>>>>>>>>>>-*>>>>>:>:>:>>>>:>>>:>>:>:>>>>:",
">>:::---:=&=>:+.+*>>>>>>>:::>>>>>::>>>:::>:>>:::>>>:>>>::>:::>>>",
">>:=$$$%%$$$:>#.O;>>>>>:*#%==-:>>:>>>>::>:::>::::>:>>::>>:::>>>>",
">>:%@###$$##=:@.O&>>>:-%####$$%;>>>:>>;=;;::>>:>>::;::::::;:>>>>",
">:=+@@@#$$##$:@X+$&&%$#$$$###$#%:::;-%@#$*=*;>:>>>-=%-%&%**=;:>>",
">-#@@@@##$##$:$o+#$$#$#$$#$%#$##-:-%@+@###$@&=&:::-%+#@####$$=>>",
";$####@#####$:;O+@$$$$$%$$#$$$##=>=O+@@@####$$#*:>=oO#$$##$$$$*-",
"#$$#########$;>;%@#$$$$%$$#$#@##*>>#@#@@###$$$$#->-o+#$$#$$$%$$$",
"$$%$##$###$$$:>>:#@$#$%%$$##@@#&:>>-@#++++###$%$:>>$@$$$$$$$$$$#",
"--;:-*##$-;>:>>>>;####$#$$###$%;>>>>$+++@+@@@$$=>>>:%@@@#$#$$&*=",
">>>>>:%=;>>>>>>>>>;*=*#@+$*-::>>>>>>;**&++++@#$:>>>>:$++$##@-:>>",
">>>>>:>>>>>>>>>>>>>>>:&++&:>>>>>>>>>>>>>=#+@##&>>>>>>-$@$##&&&=:",
">>>>>>>>>>>>>>>>>>>>>>*@@%>>>>>>>>>>>>>>>=+@#%->>>>>>>>;%@@%%%%;",
";>>>>>>>>>>>>>>>>>>>>>-#+&>>>>>>>>>>>>>>>>&*;>>>>>>>>>>>>=#%%%%=",
"%&-;::&*>>>>>>-*;>>>>>>*@&>>>>>:-*&=>>>>>>>>>>>>>::;:;-;>>%%&%%%",
"&%%%#+@#*;:;-&%$&>>>>>>>=#;>>:*%$$$$;>>>>>>>>>::*&&%*&#%;>=#&%$%",
"%%%$@O+##%%%%$%$%&->>>>>>%#-=$#$%$$$%=;>>>>>>>>*@#$$$%$#&>&o+$$%",
"%$$%@o+$$##%%%$%$#$*>>>>>-@$%$%%%$$$$$$=:::>>>:$+@##$$$$%>%o@#$$",
"$$#$#$@@$$%%$%%$%$$%*:>>>:#$$%$%$%$$$$##%;:>>:&++@###$#%$-*+%%$$",
"%$$$*;=@####$$$$$##@@$:>>>%+@#$$$$$$$$#@+%-;:=+@@@###%$$%-:&$#@#",
":;;:>:;*@@#$#@@+@@$&%->>>>;@+@##@##$##@##oO$&@#@@@@##$$%$=>>&#+&",
";-;:>>:;*%&&&$+X@$$%%:>>>>:*$$$#O$##@+##$#O+###@@@+@@$$$$->>:&%*",
"&%$=>:;-&&*&%$OX#$$$#;>:>>>&%%$O+$##+@#$;>;$*;-*%@@+@@%;-:>>>:*%",
"&%$%&%%%&&&&%#+o@#$##$=%%;>&$$$O+##@@#&;>>>:::>::&@+%;:>>>>>>>:%",
"%$$%$$$%%%%%%$+X+###$####%>-$$$@#&--;;::>>>>:>>>::=%;>>>>>>>>>:%",
"$$#$%$$%%%%%%$+X+$$$##$#$%;;$##@#-:;:::::>>>>>:>>>:>>>>>>>>>>>-#",
"%#$$$%$%%%%%%$+XO$$##$$#$$%%$#@+$%%%&:>>:>>>>:>::>>>>>>>>>>:>:&$",
"$@$$$%$$$$$%%%#XO#$$$%$$$$$$$@#+$%$%*>>>:>>:>:>>>>>>>>>>>>>>=$%%",
"@+#%#$#$$##$$=;=$@$%%&$%%#$###@+$%$$*>>>>>>>>::>::>>::>>:::;$#$#",
"&%@#%#$#$%&=->>>>;-:::;-&##%--*@#$$$%>>>>::>>;-:>>:>;--;;-;;###%",
"::$##@+%=>>>>>>>>>>>>>>>;%=;>>>:*#$$$;>>>>::-%#->>:>;=$#%+#%@@*:",
"&*%$##+&>>>>>>>>>>>>>>>>>>>>>>>>;$$$%&>>>:>-##@*;:;:;*OO@++++@&%",
"%%$$#$+*>>>>>>>>>>>>>>>>>>>>>>>>>:$#$%;>::;%##@#-;-;>#XOO+++O@%$",
"%%$$##o*>>>>>>;-=-;>>>>>>>>>>>>>>>>*%#*::-$+$##@###:>*oO++++X+%%",
"$%$&$@o%>>>>>-%%%&&*-;::>>-->>>>>>>>;-=%#@+@###+++&>>>*###@#++@#",
"#$%::*+$:>>>=$%%%%&&&&*%#@#%=:>>>>>>>>:&@+@@@@#@+$>>>>>>;;;;;=%#",
"*%=>>>*@&->=$%%%%%&&%%&#Oo#$$&=:>>>>>>>>:=$@#@@@@*>>>>>>>>>>>>:-",
">:>>>>:%$%%%&$$$$%%%%%%#+o@$$&&&*&;>>>>>>>:*#@#@%:>>>>>>>>>>>>>>",
">>>>>>>;@##$$$$$$$$$###@##+#%&%$%&%-:>>>>>>>>=#&>>>>>>>>>>>>>>>>",
">>>>>>>>-%%%@@$#####@@@%-;&+#$$%$$#$$&:>>>>>>>;>>>>>>>>>>>>>>>>>",
">>>>>>>:>;:;#+O@$%;;-;;:>:;%@$#@OO+@@@%;;::>>:>>>:>;;;=-;>>>>>>:",
">>>>>:&=%$#%#@X@$&;;===;----%%%%#O%%&%&$%&*;>>>>:=:&$$%%%&=;>>:>",
">>:=&&@###@#++oO$$$#@##$#$#$%%%%#O%%&%%$$$$%;>>>>*&$#%%%%%%%*--;",
"&-%+@@@#@@@@++Xo$#$###$$$###%$$%+o$%%%$$$$$#&;>>:;$$$&*&&&%%##$%",
"$$+++++@@@@@++Xo#######$$##$$#$$oo$%%%%$$$$##*>>>>$#$$&%%%$##$$$",
"$#++@+++++@@++.o###@#@#$#$$#$#$$X.@%%$$$#$&=->>>>>-$$$$$##$$$$$$",
"##@+@@@++@@#$&#oO@+@#@##$%$##$#@X.+#$#$$#*;>>>>>>>:&&&%$O+$##$$$",
"##+@@@@@+@%-:>;=$@@@@#@@%$$#$@@+OOO+##@$%&%&=;>>>>:&%%%@o+###$##"
};
