/* XPM */
static char *e2af14da00444313d4808e546818e6147KNps8lEyQUfPNCF[] = {
/* columns rows colors chars-per-pixel */
"64 64 215 2 ",
"   c #2E2D2E",
".  c #2F323A",
"X  c #313133",
"o  c #333539",
"O  c #38373A",
"+  c #3C3C3D",
"@  c #552C2C",
"#  c #5D2B2B",
"$  c #4A3636",
"%  c #553434",
"&  c #682B2B",
"*  c #7B2425",
"=  c #752828",
"-  c #782929",
";  c #77392A",
":  c #633737",
">  c #643B3B",
",  c #6E3B3C",
"<  c #763838",
"1  c #7B482A",
"2  c #7B542B",
"3  c #7B572B",
"4  c #7C4B32",
"5  c #7D642D",
"6  c #2F3C4F",
"7  c #333844",
"8  c #383A42",
"9  c #463D47",
"0  c #543E41",
"q  c #643F40",
"w  c #0F5C47",
"e  c #145D4A",
"r  c #1E5B49",
"t  c #3A4A47",
"y  c #35465C",
"u  c #17604C",
"i  c #1B614E",
"p  c #1E6352",
"a  c #236655",
"s  c #296557",
"d  c #266956",
"f  c #2B6C5B",
"g  c #356B5D",
"h  c #374B69",
"j  c #334B6D",
"k  c #2C4A74",
"l  c #314E76",
"z  c #3B4E74",
"x  c #324F78",
"c  c #355376",
"v  c #3A5476",
"b  c #3B5D75",
"n  c #355179",
"m  c #3A557C",
"M  c #3C587E",
"N  c #356A62",
"B  c #3B6D6B",
"V  c #347263",
"C  c #397364",
"Z  c #3D7669",
"A  c #3D6476",
"S  c #464548",
"D  c #4D4A4B",
"F  c #554445",
"G  c #44524E",
"H  c #474D59",
"J  c #49575A",
"K  c #565557",
"L  c #684647",
"P  c #784849",
"I  c #61475E",
"U  c #65585A",
"Y  c #795456",
"T  c #515266",
"R  c #454E71",
"E  c #4A5675",
"W  c #5A5A76",
"Q  c #685669",
"!  c #6E5B71",
"~  c #496865",
"^  c #5F6062",
"/  c #457A6C",
"(  c #44647C",
")  c #48677A",
"_  c #456C7A",
"`  c #5B6375",
"'  c #4A7876",
"]  c #547C7D",
"[  c #626265",
"{  c #656667",
"}  c #776668",
"|  c #696779",
" . c #716A79",
".. c #79777A",
"X. c #941E1E",
"o. c #91201F",
"O. c #921F20",
"+. c #832525",
"@. c #8C2524",
"#. c #842A24",
"$. c #852B2B",
"%. c #8A2928",
"&. c #932223",
"*. c #932B2B",
"=. c #982829",
"-. c #853628",
";. c #863637",
":. c #963333",
">. c #9D3535",
",. c #A23E3E",
"<. c #8B522A",
"1. c #975C2C",
"2. c #826B2D",
"3. c #88722D",
"4. c #9C772D",
"5. c #8A4444",
"6. c #974446",
"7. c #944F51",
"8. c #885759",
"9. c #845B5C",
"0. c #9B575B",
"q. c #A5494A",
"w. c #A7494A",
"e. c #A24E50",
"r. c #AA5454",
"t. c #A9595A",
"y. c #B05C5C",
"u. c #8D5D65",
"i. c #856162",
"p. c #886B6B",
"a. c #946769",
"s. c #877778",
"d. c #987577",
"f. c #A36565",
"g. c #A66667",
"h. c #B46767",
"j. c #A97778",
"k. c #B77878",
"l. c #518276",
"z. c #3E5A80",
"x. c #425D82",
"c. c #466185",
"v. c #4A6386",
"b. c #4D6689",
"n. c #4E6989",
"m. c #536B8D",
"M. c #586F91",
"N. c #5C7393",
"B. c #78798B",
"V. c #617796",
"C. c #627897",
"Z. c #667B9A",
"A. c #697E9C",
"S. c #827F80",
"D. c #5F8484",
"F. c #6D829E",
"G. c #768591",
"H. c #7286A1",
"J. c #7689A4",
"K. c #7B8DA7",
"L. c #7C90A8",
"P. c #888586",
"I. c #928E8F",
"U. c #8B8C92",
"Y. c #9B9597",
"T. c #AB9292",
"R. c #B69899",
"E. c #8395AD",
"W. c #8F9AAB",
"Q. c #979AA0",
"!. c #8798B0",
"~. c #8C9CB3",
"^. c #92A2B7",
"/. c #95A4B9",
"(. c #9CAABE",
"). c #A8A7A8",
"_. c #B2ADB0",
"`. c #B8B6B7",
"'. c #C58989",
"]. c #CD9999",
"[. c #D3A6A6",
"{. c #C6B6B7",
"}. c #DBB7B7",
"|. c #A4B1C3",
" X c #AAB6C7",
".X c #AFBACA",
"XX c #B6BECA",
"oX c #BBC1CC",
"OX c #BBC4D2",
"+X c #BFC8D5",
"@X c #C2C2C4",
"#X c #CBCACC",
"$X c #D4CACA",
"%X c #C3CAD6",
"&X c #C5CDD8",
"*X c #CAD1DC",
"=X c #D8D8DA",
"-X c #E4CBCB",
";X c #E9D4D5",
":X c #E9DCDC",
">X c #D4DAE3",
",X c #DADEE4",
"<X c #DEE2E9",
"1X c #E4E3E3",
"2X c #EEE2E1",
"3X c #E2E5EB",
"4X c #E7E9ED",
"5X c #EAEBEB",
"6X c #F3EAEA",
"7X c #E9ECF0",
"8X c #EEF1F4",
"9X c #F3F4F6",
"0X c #F7F6F7",
"qX c #FCFDFD",
"wX c #FEFEFE",
/* pixels */
"k k k k k k k k k k k k k k k k k k k k k k k k k k k k k k k k k k k k k k k k k k k k k k k k k k k k k k k k k k k k k k k k ",
"k k k k k k k k k k k k k k k k k k k k k k k k k k k k k k k k k k k k k k k k k k k k k k k k k k k k k k k k k k k k k k k k ",
"k k k k k k k k k k k k k k k k x z.l k k k k k k k k k k k k k k k k k k k k k k k k k k k k k k k k k k k k k k k k k k k k k ",
"k k k k k k k k k k k k k k k k v.L.x.x k k k l x x x k k k k k k k k k k k k k k k k k k k k k k k k k k k z.k k k k k k k k k ",
"k k k k k k k k k k k k k k k l A.*XH.n k x x.N.K.J.F.N.x.n n k k k k k k k k k k k k k k k k k k k k k k k k k k k k 6 k k k k ",
"k k k k k k k k k k k k k k k k x v.n k k m.E.OXqXqXqX<X XE.N.x.n k k k k k k k k k k k k k k k k k k k k k k k k k k k k k k k ",
"k k k k k k k k k k k k k k k k k k k k n.~.,XqXqXqXqXqXqXqX+XE.H.m k k k k k k k k k k k k k k k k k k k k k k k k k k k k k k ",
"k k k k k k k k k k k k k k k k k k k k J.>XqXqXqXqXqXqXqXqXqXqX7X(.m k k k k k k k k k x k k k k k k k k k k k k k k k k k k k ",
"k k k k k k k k k k k k k k k k k k k k N.|.<XqXqXqXqXqXqXqXqXqXqX8X^.n k k k k k k k k k k k k k k k k k k k k k k k k k k k k ",
"k k k k k k k k k k k k k k k k k k k k k N.(.>XqXqXqXqXqXqXqXqXqX9XXXb.l k k k k k k k k k k k k k k k k k k k k k k k k k k k ",
"k k k k k k k k k k k k k k k k k k l k k l m b.F.J.J.K.!.,XqXqXqXqX9XL.m k k k k k k l k k k k k k k k k k k k k k k k k k k k ",
"k k k k k k k k k k k k n N.A.z.k k k k k k k k l n n n n n./.<XqXqXqX(.x.k l k k k k k k k k k k k k k k k k k k k k k k k k k ",
"k k k k k k k k k k k k M ~.^.v.k k k k k k k k k k k k k x z.N..XqXqXOXc.k k k k k k k k k k k k k k k k k k k k k k k k k k k ",
"l k k k k k k k k k l k l x.c.x k k k k k k k k k k k k k k k l N.*XqX>XM.k k k k k k k k k k k k k k k k k k k k k k k k k k k ",
"k k k k k k k l k k k k k k k k k l k k k k k k k k k k k k k k c.(.qX*XN.l k k k k k k k k k k k k k k k k k k k k k k k k k k ",
"k k k k k k k k k k k k k k k k k k k k k k k k k k k k k k k k n N.<X>XN.n k k k k k k k k k k k k k k k k k k k k k k k k k k ",
"k k k k k k k k k k k k k k k k k k k k k k k k l k k k k k k k k x.|.>XV.x k k k k k k k k k k k k k k k k k k k k k k k k k k ",
"k k k k k k k k k k k k k k k k k k k k k k k k k k k k k k k k k x N.|.b.x k k k k k k k k k k k k k k k k k k k k k k k k k k ",
"k k k k k k k k k k k k k k k k x.H.m.k k k k k k k k k k k k k k k x b.z.k k k k l k k k k k k k k k k k k k k k k k k k k k k ",
"k k k k k k k k k k k k k k k x m. XF.z.k k k k k k k k n l k k k k k k k k k k k k k k k k k k k k k k k k k k k k k k k k k k ",
"k k k k k k k k k k m.n.m k k k z.F.b.z.k k k k k k k m A.v.n k k k k k x k k k k k k k k k k k k k k k k k k k k k k k k k k k ",
"k k k k k k k k k x H.F.z.k k k k k k k k k k k k l k n V.v.k k k k z W W z k k k k k k k k k k k k k k k k k k k k k k k k k k ",
"k k k k k k k k k x m.n.n k k k k k k k k k k k k k k k x k k k k k b.e.u.E k k k k k k k k k k k k k k k k k k k k k k k k k k ",
"k k k k k k k k k k k k k k k k k k k k k k k k k k k k k k k k k j B.6.e.T k k k k k k k k k k k k k k k k k k k k k k k k k k ",
"k k k k k k k k k k k k k k k k k k k k k k k k k k k k k k k k k l m.,.r.I z.k k k k k k k k k k k k k k k k k k k k k k k k k ",
"k k k k k k k k k k k k k k k l k k k k k k k k k k k k k k k k k l x.u.u.R k k k k k k k k l k k k k k k k k k k k k k k k k k ",
"k k k k k k k k k k k k k k l c.N.z.k k k k k l n n M z.M m M x.R z.z.S.Z.v.z.z.m m z.c.z.n k k k k k k k k k k k k k k k k k k ",
"k k k k k k k k k k k k k k c N.^.b.k k k l n x.b.N.H.!.~.~.~.~.~.~.~.XX+X(.~.E.~.!.!.|./.J.v.x k k k k k k k k k k k k k k k k ",
"k k k k k k k k k k k k k k k M v.x k k k z.N.L.^./.*X0XqXqXqXqXqXqXqXqX0XqXqXqXqX0X4X0X9X8X XM.k k k k k k k k k k k k k k k k ",
"k k k k k k k k k k k k k k k k k k k z.b.F.(.<XqXqXqXqXqXqXqXqXqXqXqXqXqXqXqXqXqXqX<X=X`.>X9X Xz.k k k k k k k k k k k k k k k ",
"k k k k k k k k k k k k k k k k k k k M.L..X<XqXqXqXqXqXqXqXqXqXqXqXqXqXqXqXqXqXqX0X#Xs.q P.*X3X!.z.k k k k k k k k k k k k k k ",
"k k k k k k k k k k c.c l k k k k k k N.>XqXqXqXqXqXqXqXqXqXqXqXqXqXqXqXqXqXqXqX0X1XR.Y & L ~.<X+Xz.k k k k k k k k k k k k k k ",
"k k k k k k k k v D.Z ] M k k k k l b.F.<XqXqXqXqXqXqXqXqXqXqXqXqXqXqXqXqXqXqXqX0X=Xs.;.#.< } `.3X/.l k k k k k k k k k k k k k ",
"l k k k k l l c _ C a / _ ) m k k n A..X7XqXqXqXqXqXqXqXqXqXqXqXqXqXqXqXqXqXqXqX8X{.8.%.@.$.L Y.4X*Xz.k k k k k k k k k k k k k ",
"n k k k k _ / d a a f V l._ c k x m.H.7XqXqXqXqXqXqXqXqXqXqXqXqXqXqXqXqXqXqXqXqX:XY.P - $.%.- a.&X,XA.k k k k k k z.k k k k k k ",
"c k k k ( B d f / C f l.( n k k n C.oX0XqXqXqXqXqXqXqXqXqXqXqXqXqXqXqXqXqXqXqXqX$Xp.< <.4 <.$.> I.9X*Xk k k k k k k k k k k k k ",
"n k k k k k k n ] d p f ] ( k n A.XX0XqXqXqXqXqXqXqXqXqXqXqXqXqXqXqXqXqXqXqXqX5X_.;.%.1.4.1.-.= p.,X4Xc.x k k k k k k k k k k k ",
"m k k k n l k m Z p p d l.( M K.OXqXqXqXqXqXqXqXqXqXqXqXqXqXqXqXqXqXqXqXqXqXqX#Xd.@.@.1.4.1.%.+.P T.0XXXz.k k k k k k k k k k k ",
"c k c B f s s s d d a V _ v n./.0XqXqXqXqXqXqXqXqXqXqXqXqXqXqXqXqXqXqXqXqXqX5XR.P X.&.-.<.-.@.&.= } 3X9XN.z.k k k k k k k k k k ",
"l k c.Z d s d d f d a l.A v.E.&XqXqXqXqXqXqXqXqXqXqXqXqXqXqXqXqXqXqXqXqXqX0X@Xp.* &.&.@.%.%.&.&.+., T.qX,XN.k k k k k k k k k k ",
"x k k l c l l A Z i f A c.M.(.qXqXqXqXqXqXqXqXqXqXqXqXqXqXqXqXqXqXqXqXqX0X=XP., +.X.&.&.&.&.&.=.&.- L @X8XOXM.k k k k k k k k k ",
"k k k k k l k c N p V b m.!.*XqXqXqXqXqXqXqXqXqXqXqXqXqXqXqXqXqXqXqXqXqX=XI.F 4 r.r.q.q.q.q.w.w.r.f.d.Y.,X7XK.n k k k k k k k k ",
"k k k ( ' B d d a e a ) K.+X9XqXqXqXqXqX9X0X5X5X6X2X5X4X9X9X0X0X0X0X=X`...K ..`.;X:X;X;X;X;X;X;X;X:X1X1X&X5X/.x.k k k k k k k k ",
"k k ) N d d p p u p r g G.).oX@X`._.).Q.Y.P.P.P.P.l.s.P.P.P.I.I.I.I...K D D  ._.:X,X$X#X@X@X@X@X@X@X#X@XQ.W.N.n k k k k k k k k ",
"k k M.f i p f V u u i s ~ { } i.Y Y Y P L 4 0 % : : 4 L L P Y Y Y P : # $ $ L 9.a.a.i.9.9.9.8.9.u.u.i.} B.) l k k k k k k k k k ",
"l k A ' f p V Z u e f / / t % < 8.Y P Y P < - +.* #.< 8.i.8.8.8.i.5.$.#.& @ & #.+.$.- ; ; ; ; - +.+.= L ..v k k k k k k k k k k ",
"l k k A Z f f f u e N A b t $ P } F $ F Q 9.5.*.o.&.r.a.} U U U p.f.>.X.* # = &.&.@.; 2 5 3 1 $.X.&.* > | n k k k k k k k k k k ",
"k k k k A l.C p i e s B A K 0 L ` X X X S T Y 6.X.X.t.i.K + O S U g.>.X.* # = @.&.%.1 5 2.2.2 ; &.&.* q ` k k k k k k k k k k k ",
"k k k A B V f p u e r d g J K K H X X   X O Q 7.&.&.t.i.D X   O U f.>.&.= # = &.&.@.1 5 3.3.2 ; &.&.+.: } E n k k k k k k k k k ",
"k k k / d u u w e a J s r J K S O X X X X o S L = +.t.i.D X   S } f.>.&.* # - @.&.@.1 5 3.3.2 -.O.&.* : } ` W ! W R k k k k k k ",
"k k k b N g f f N ~ E ~ t t S X X X X X o X . 7 F ;.t.i.D X X D ..f.>.&.= # = &.&.@.1 5 3.2.2 -.O.O.+.: Y } j.k.d. .Q I Q j k k ",
"k k k k A _ A A y O j J o X   X X X X X X X   o 9 6.t.i.D o X D } g.>.X.* # = &.=.@.; 1 <.1 ; #.O.&.+.% Y g.j.h.f.g.y.e.t.h k k ",
"k k k k k k k k 7 X y y O X X X X o X   X     . 9 0.t.} F X   + [ f.<.X.* # = @.&.&.@.#.#.#.#.@.=.*.$.P s.T.T.f.0.f.t.6.g.R k k ",
"k k k k k k k k 6   y k h G S o X O X X X   . 7 9 Y 8.Y D O o 7 U f.>.O.= # = @.&.&.&.=.=.,.,.r.h.h.j.T.`.$X$XR.S.u.0.q.P.k k k ",
"k k k k k k k k 7 X y k k c z S O X   X X X . . 7 8 8 F K J K K  .k.q.>.;.> < :.>.,.w.r.k.'.].}.}.-X-X:X5X0X9X1X{.B.! u.R k k k ",
"k k k k k k k k 6 . h j j h y D 8 X X . X         X X 8 ` Y.).).`.[.].k.k.d.j.k.'.].[.}.-X:X6XqXqXqXqXqXqXqXqXqX&XZ.M x.z k k k ",
"k k k k k k k l v J H.H o . X X X X X X X o + K [ Q { G.oX7XqXqX0X0X6X2X2X:X1X2X6X0XqXqXqXqXqXqXqXqXqXqXqXqXqXqX3XOX!.J.b.z.k k ",
"k k k k k k n m.E.OX+XU.| { [ ^ ^ [ [ { { { P.oX8X0X0XqXqXqXqXqXqXqXqXqXqXqXqXqXqXqXqXqXqXqXqXqXqXqXqXqXqXqXqXqX0X0X9X%X~.C.z.k ",
"k k k k k k x.E.*XqXqXqXqXqX0X0X0XqXqXqXqX0XqXqXqXqXqXqXqXqXqXqXqXqXqXqXqXqXqXqXqXqXqXqXqXqXqXqXqXqXqXqXqXqXqXqX0XqXqXqXqX!.b.n ",
"k k k k k k x.!.4X9XqXqXqXqXqXqXqXqXqXqXqXqXqXqXqXqXqXqXqXqXqXqXqXqXqXqXqXqXqXqXqXqXqXqXqXqXqXqXqXqXqXqXqXqXqXqXqX0XqXqX9X!.M.z ",
"k k k k k k c m.H..X4X8X9X7X8X9X0XqXqXqXqXqXqXqXqXqXqXqXqXqXqXqXqXqXqXqXqXqXqXqXqXqXqXqXqXqXqXqXqXqXqX0X8X8X8X9X8X8X7X4X.XA.b.x ",
"k k k k k k k k x.N.Z.A.F.F.F.E.OX9X0X9X0X9X0X9X9X9X9X0X9X9X9X9X0X9X9X9X0X0X0X0X0X9X0X0X0X9X9X9X0X9X7XXXJ.H.A.A.A.A.A.N.m.z.k k ",
"k k k k k k k k k k k l m x.v.n.n.m.N.N.N.C.C.Z.Z.A.F.A.F.A.F.F.H.F.F.F.A.A.F.F.A.A.Z.Z.A.C.N.N.N.M.m.m.b.x.x.z.m z k k k k k k ",
"k k k k k k k k k k k k k k k k k k k k k k k k k l n n m m M z.M M M M M m m n n n l l k k k k k k k k k k k k k k k k k k k k "
};
