/* XPM */
static char *_8801161b7ef4d81d7805db3d682a372PE8LzvUEb4qxYRwx[] = {
/* columns rows colors chars-per-pixel */
"64 64 220 2 ",
"   c black",
".  c #010101",
"X  c #020202",
"o  c gray1",
"O  c #040404",
"+  c gray2",
"@  c #060606",
"#  c #070707",
"$  c gray3",
"%  c #090909",
"&  c gray4",
"*  c #0B0B0B",
"=  c #0C0C0C",
"-  c gray5",
";  c #0E0E0E",
":  c gray6",
">  c #101010",
",  c #111111",
"<  c gray7",
"1  c #131313",
"2  c gray8",
"3  c #151515",
"4  c #161616",
"5  c gray9",
"6  c #181818",
"7  c #191919",
"8  c gray10",
"9  c #1B1B1B",
"0  c gray11",
"q  c #1D1D1D",
"w  c #1E1E1E",
"e  c #202020",
"r  c gray13",
"t  c #232323",
"y  c gray14",
"u  c #252525",
"i  c #272727",
"p  c #282828",
"a  c gray16",
"s  c #2A2A2A",
"d  c gray17",
"f  c #2C2C2C",
"g  c #2D2D2D",
"h  c gray18",
"j  c #2F2F2F",
"k  c gray19",
"l  c #313131",
"z  c #323232",
"x  c gray20",
"c  c #343434",
"v  c #353535",
"b  c gray21",
"n  c #373737",
"m  c gray22",
"M  c #393939",
"N  c #3A3A3A",
"B  c gray23",
"V  c #3C3C3C",
"C  c gray24",
"Z  c #3E3E3E",
"A  c #3F3F3F",
"S  c gray25",
"D  c #414141",
"F  c gray26",
"G  c #434343",
"H  c #444444",
"J  c gray27",
"K  c #464646",
"L  c gray28",
"P  c #484848",
"I  c #494949",
"U  c gray29",
"Y  c #4B4B4B",
"T  c gray30",
"R  c gray31",
"E  c #505050",
"W  c gray32",
"Q  c #555555",
"!  c #565656",
"~  c gray34",
"^  c #585858",
"/  c #5B5B5B",
"(  c #5D5D5D",
")  c #5F5F5F",
"_  c #606060",
"`  c gray38",
"'  c #626262",
"]  c gray39",
"[  c #646464",
"{  c gray40",
"}  c #676767",
"|  c #686868",
" . c #6A6A6A",
".. c #6C6C6C",
"X. c #6D6D6D",
"o. c gray43",
"O. c #6F6F6F",
"+. c gray44",
"@. c #717171",
"#. c gray45",
"$. c #747474",
"%. c #767676",
"&. c #777777",
"*. c gray47",
"=. c #797979",
"-. c gray48",
";. c #7B7B7B",
":. c #7C7C7C",
">. c gray49",
",. c #7E7E7E",
"<. c gray50",
"1. c #808080",
"2. c #818181",
"3. c gray51",
"4. c #838383",
"5. c #848484",
"6. c gray52",
"7. c #868686",
"8. c #888888",
"9. c gray54",
"0. c #8B8B8B",
"q. c #8E8E8E",
"w. c gray56",
"e. c #909090",
"r. c #929292",
"t. c gray58",
"y. c #959595",
"u. c #979797",
"i. c gray60",
"p. c #9B9B9B",
"a. c #9D9D9D",
"s. c gray62",
"d. c #9F9F9F",
"f. c #A0A0A0",
"g. c #A2A2A2",
"h. c gray64",
"j. c #A4A4A4",
"k. c #A5A5A5",
"l. c gray65",
"z. c gray66",
"x. c #AAAAAA",
"c. c gray67",
"v. c #ACACAC",
"b. c gray68",
"n. c #AFAFAF",
"m. c #B1B1B1",
"M. c #B2B2B2",
"N. c gray70",
"B. c #B4B4B4",
"V. c gray71",
"C. c #B6B6B6",
"Z. c gray72",
"A. c #B9B9B9",
"S. c gray73",
"D. c #BBBBBB",
"F. c #BCBCBC",
"G. c gray74",
"H. c gray",
"J. c #C0C0C0",
"K. c #C1C1C1",
"L. c gray76",
"P. c #C3C3C3",
"I. c gray77",
"U. c #C5C5C5",
"Y. c #C6C6C6",
"T. c gray78",
"R. c #C8C8C8",
"E. c gray79",
"W. c #CACACA",
"Q. c #CBCBCB",
"!. c gray80",
"~. c #CDCDCD",
"^. c #CECECE",
"/. c gray81",
"(. c #D0D0D0",
"). c gray82",
"_. c #D2D2D2",
"`. c LightGray",
"'. c gray83",
"]. c #D5D5D5",
"[. c gray84",
"{. c #D7D7D7",
"}. c gray85",
"|. c #DADADA",
" X c gray86",
".X c gainsboro",
"XX c #DDDDDD",
"oX c gray87",
"OX c #DFDFDF",
"+X c gray88",
"@X c #E1E1E1",
"#X c #E2E2E2",
"$X c #E4E4E4",
"%X c gray90",
"&X c #E6E6E6",
"*X c #E7E7E7",
"=X c gray91",
"-X c #E9E9E9",
";X c #EAEAEA",
":X c gray92",
">X c #ECECEC",
",X c gray93",
"<X c #EEEEEE",
"1X c #EFEFEF",
"2X c gray94",
"3X c #F1F1F1",
"4X c gray95",
"5X c #F3F3F3",
"6X c #F4F4F4",
"7X c gray96",
"8X c #F6F6F6",
"9X c gray97",
"0X c #F8F8F8",
"qX c #F9F9F9",
"wX c gray98",
"eX c #FBFBFB",
"rX c gray99",
"tX c #FDFDFD",
"yX c #FEFEFE",
"uX c white",
/* pixels */
"uXuXuXuXuXuXuXuXuXuXuXuXuXuXuXuXuXuXuXuXuXuXuXuXuXuXuXuXuXuXuXuXuXeXuXuXuX9XuXuXuXuXuXuXuXuXuXuXuXuXuXuXuXuXuXuXuXuXuXuXuXuXuXuX",
"uXuXuXuXuXuXuXuXuXuXuXuXuXuXuXuXuXuXuXuXuXuXuXuXuXuXuXuXuXuXuXuXuXuXuXuXuXuXuXeX9XuXuXuXeXeXuXuXuXuXuXuXuXuXuXuXuXuXuXuXuXuXuXuX",
"uXuXuXuXuXuXuXuXuXuXuXuXuXuXuXuXuXuXuXuXuXuXuXuXuXuXuXuXuXuXuXuX9XuXuX9XuXuXuXuXuXuXuXuXuXeXuXuXuXuXuXuXuXuXuXuXuXuXuXuXuXuXuXuX",
"uXuXuXuXuXuXuXuXuXuXuXuXuXuXuXuXuXuXuXuXuXuXuXuXuXuXuXuXuXuXuXuXeXuXuX9XeXuXuXuXuXuX9X9XuXuXuXuXuXuXuXuXuXuXuXuXuXuXuXuXuXuXuXuX",
"uXuXuXuXuXuXuXuXuXuXuXuXuXuXuXuXuXuXuXuXuXuXuXuXuXuXuXuXuXuXuXuXuXuXeXeXuXuXuXuXuXuXuXeXeXuXuXuXuXuXuXuXuXuXuXuXuXuXuXuXuXuXuXuX",
"uXuXuXuXuXuXuXuXuXuXuXuXuXuXuXuXuXuXuXuXuXuXuXuXuXuXuXuXuXuXuXuXuXeXuXuXuXuX9X|.$XeXuXuXuX9XeXuXuXuXuXuXuXuXuXuXuXuXuXuXuXuXuXuX",
"uXuXuXuXuXuXuXuXuXuXuXuXuXuXuXuXuXuXuXuXuXuXuXuXuXuXuXuXuXuXuXuXuX9XuXuXuXuX$Xq.4.j.`.9XuXuXeXuXuXuXuXuXuXuXuXuXuXuXuXuXuXuXuXuX",
"uXuXuXuXuXuXuXuXuXuXuXuXuXuXuXuXuXuXuXuXuXuXuXuXuXuXuXuXuXuXuXuXuXeXuXuX9XuX/.I   p o.A.<XuXuXeXuXuXuXuXuXuXuXuXuXuXuXuXuXuXuXuX",
"uXuXuXuXuXuXuXuXuXuXuXuXuXuXuXuXuXuXeX9XuXuXuXuXuX<XuXeXuXuXuX9XuX9XuXuX-XuXuX4.6     N a.uX9XuXuXuXuXuXuXuXuXuXuXuXuXuXuXuXuXuX",
"uXuXuXuXuXuXuXuXuXuXuXuXuXuXuXuXuXuXeXeXuXuX$XN.v.U.@X9X2X9X9XuXuX9X9X9XeXuXuX|.K $   # n F.9XuXuXuXuXuXuXuXuXuXuXuXuXuXuXuXuXuX",
"uXuXuXuXuXuXuXuXuXuXuXuXuXuXuXuXeXuXuXeXeXeXz.N   x ! a.`.uXuXuX9XuXeXuXuXuX9XuX#.6       a.uXuXuXuXuXuXuXuXuXuXuXuXuXuXuXuXuXuX",
"uXuXuXuXuXuXuXuXuXuXuXuXuXuXuXuXeXeXuXuXuXuX/.^ = #   1 K v.<XuXeXuX<XOX-X9XeXeXa.h $   2 V.uX9XuXuXuXuXuXuXuXuXuXuXuXuXuXuXuXuX",
"uXuXuXuXuXuXuXuXuXuXuXuXuXuXuXuXuXeXuXeX9XuXuX/.K 1   # # N L.eX<XF.9.{ :.`.uXuXL.A     x U.uXuXuXuXuXuXuXuXuXuXuXuXuXuXuXuXuXuX",
"uXuXuXuXuXuXuXuXuXuXuXuXuXuXuXuXuXeXuXuX2X9XuX<Xa.p         :.V.#.n =   # o.@XuXQ.G     N U.eXuXuXuXuXuXuXuXuXuXuXuXuXuXuXuXuXuX",
"uXuXuXuXuXuXuXuXuXuXuXuXuXuXuXuX9XeXuXuXuXuXuXuX-X4.1 = 6   = $ =       $ ` `.eXQ.A   = G Q.eXuXuXuXuXuXuXuXuXuXuXuXuXuXuXuXuXuX",
"uXuXuXuXuXuXuXuXuXuXuXuXuXuXuXuXuXuXuXeXuXuXeXuXuX/.x     $ 2 t t p N K o.A.9XuX`.x   $ N /.uX9XuXuXuXuXuXuXuXuXuXuXuXuXuXuXuXuX",
"uXuXuXuXuXuXuXuXuXuXuXuXuXuXuXuXuXuXuXuXuXuXuXuXuXuX! $ =   G 4.u.f.F.OX9XuXuXeX/.n     W '.2XuXuXuXuXuXuXuXuXuXuXuXuXuXuXuXuXuX",
"uXuXuXuXuXuXuXuXuXuXuXuXuXuXuXuXuXuXuXuXuXuXuXuXeXuX&.2     #.$XuXuXuXuXeXuXuXuX`.A $   o.$XuXeXuXuXuXuXuXuXuXuXuXuXuXuXuXuXuXuX",
"uXuXuXuXuXuXuXuXuXuXuXuXuXuXuXuXuXuXuXuXuXuXuXuXeXuX9.t     :.9X9XeXuXuXuXeXeXeX`.h   $ p.9XuXuXuXuXuXuXuXuXuXuXuXuXuXuXuXuXuXuX",
"uXuXuXuXuXuXuXuXuXuXuXuXuXuXuXuXuXuXuXuXuXuXuXuXeXuXa.h $ $ &.|.uXuX9XeXuXuXuXuX/.x   n U.uXeXuXuXuXuXuXuXuXuXuXuXuXuXuXuXuXuXuX",
"uXuXuXuXuXuXuXuXuXuXuXuXuXuXuXuXuXuXuXuXuXuXuXuXeXuXL.N     :.<XuXuXuXuXuXeX-X|.f.n $ W '.uX2XuXuXuXuXuXuXuXuXuXuXuXuXuXuXuXuXuX",
"uXuXuXuXuXuXuXuXuXuXuXuXuXuXuXuXuXuXuXuXuXuXuXuXuXuX|.G     | F.L.L.Q.Q.U.v.9.o.N 2   A F.uXeXuXuXuXuXuXuXuXuXuXuXuXuXuXuXuXuXuX",
"uXuXuXuXuXuXuXuXuXuXuXuXuXuXuXuXuXuXuXuXuXuXuXuXuXeX-XW $   h K I K n u 0 =           p V.uXuXeXuXuXuXuXuXuXuXuXuXuXuXuXuXuXuXuX",
"uXuXuXuXuXuXuXuXuXuXuXuXuXuXuXuXuXuXuXuXuXuXuXuXuXuXuX` 1           #         # $ 2 0 n Q.eXuXuXuXuXuXuXuXuXuXuXuXuXuXuXuXuXuXuX",
"uXuXuXuXuXuXuXuXuXuXuXeX9XeXuXuXuXuXuXuXuXuXuXuXuXuX9Xj.u # x I I K G G I I K K T { u./.2XuXuXuXuXeXeXuXuXeXeXuXuXuXuXuXuXuXuXuX",
"uXuXuXuXuXuXuXuX9XuXuXeXuXuXuXuXuXuXuXeXeXeXuXuXeXuXuXF.! ^ A.uXeXuXeX2X<X<X2XuXuXeXeXuXuXuXuXuXuXuXuXuXeXuXuXuXuXuXuXuXuXuXuXuX",
"uXuXuXeXeXuXuXuXuXuXuXeXeXuXuXeXuXuXuXuXuXuXuXuXeXeXuX9XF.L.<XuXeXeXuXuXeXeXuXuXuXuXuXuX9X-X/.F.z.A.`.<XuXuXeX9XuXuXuXuXuXuXuXuX",
"9XuXuXuXuXuXuXuXuXeXeXuXuXeXeXuXuXeXuXeXuXeXuXuXuXeXuXuXeXuXuXeXuXuXuXuXuXeX<X@X|.OX'.U.j.&.N 2 2 u T a.-XuXeXuXuXuXuXuXuXuXuXuX",
"9XeXuXuXuXuXuXuXeXeX<XOX/./.`.'.`.'.'.'.'.`./.Q.U.A.F.L.A.A.U.A.L.L.A.v.j.a.e.9.o.! n 6 # # $ 1       A z.2XuXuXuXuXuXuXuXuXuXuX",
"2XeXuXuXuXuXuXeXuXuX/.&.G I ! I I I I K G A N n N x n n p t 0 0 $ 1 $           #     = #         $   $ 4.-XuXeXuXuXuXuXuXuXuXuX",
"<XeXuXuXeXuXuXuXuXuX'.#.t #     $ $ #         # #           $ = = 6 0 t p p 2       $ u p t 6 t # 2 $ h f.eXuXeXuXuXuXuXuXuXuXuX",
"<XeXuXuXuXuXuXeX2XuXuXOXe.A 2 =           # = 2 p h N K I I W ^ o.#.*.9.p.6.K     $ A 6.j.e.:.&.| #.{ q.$XuX9XuXuXuXuXuXuXuXuXuX",
"<XeXuXeXeXuXuXeXuXuXuXuX9XU.&.h 2 # # 1 p K ` *.f.v.Q.@X2XeXuXuXuX9XuXuX9X9Xu.2     h F.eXuXuXuXuXuXuXuXuXuXuXuXuXuXuXuXuXuXuXuX",
"<XeXuXuXeXuXuXuXeXeXeXuXuXuX<X`.{ T I &.F.-XuXuXuXuXuXuXuXuXuXeXuXeXuXuXuXuXL.A     = z.eXeXuXuXuXuXuXuXuXuXuXuXuXuXuXuXuXuXuXuX",
"2XuXuXuXeXuXuXuXuXuXuXeXuXuXuXeXuX2X@X<XuXuXeX9XuXuXeXeXuXuXuXuXuX9XuXeXuXuX<X!   $ $ j.uX9XuXuXuXuXuXuXuXuXuXuXuXuXuXuXuXuXuXuX",
"9XuXuXuXuXuXuXuXeXuXuXuXeXuXeXeXeXuXuXuXuXeXuXuXuXuXuXuXuXuXuXuXuXeXuXeXuXuXuX^ # $ n U.uX9XuXuXuXuXuXuXuXuXuXuXuXuXuXuXuXuXuXuX",
"eXuXuXuXuXuXuXeXuXuXuXeXeXuXuXuXuXeXuXuXuXeXuXuXuXuXuXuXuXuXuXeXuXuXuXuXuXeXuX) # $ 4.-XeX9XuXeXuXuXuXuXuXuXuXuXuXuXuXuXuXuXuXuX",
"eXuXuXuXuXuXuXuXuXuXuXuXeXeXeX9XuXuXeXuXuXuXuXuXeX9XeX9XeXuXuXuXeXuXuXuXuXeXuX| 1 x U.uXeXeXuXuXuXuXuXuXuXuXuXuXuXuXuXuXuXuXuXuX",
"uXuXuXuXuXuXeXuXeXeXuXuXuXuXuXuXuXuXuXuXeXeXeXuXuXuXuXuXuXuXuXuXeXuXeXuXeXuXeX:.N 4.$XuXuXuXuXuXuXuXuXuXuXuXuXuXuXuXuXuXuXuXuXuX",
"uXuXuXuXuXuXuXuXuXuXuXeXeXeXuXuXuXuXeXuXuXuXuXuX9XeXuXuXuXuXuXuXuXuXeXuXeXuX9Xe.! F.2X-XuXeXuXeXuXuXuXuXuXuXuXuXuXuXuXuXuXuXuXuX",
"uXuXuXuXuXuXuXuXuXuXuXuXuXuXuXuXuXuXuXeXeXuXuX9XuXuXeX9XeXuXuX2X9X9X$X<X<XOXQ.a.{ ^ :.OXuX9XeXuXuXuXuXuXuXuXuXuXuXuXuXuXuXuXuXuX",
"uXuXuXuXuXuXuXuXuXuXuXuXuXuXuXuXuX9XuXuX<XA.j.v.f.v.V.N.z.a.f.z.f.f.u.q.*.` K 2 $   1 | Q.uXuXeXuXuXuXuXuXuXuXuXuXuXuXuXuXuXuXuX",
"uXuXuXuXuXuXuXuXuXuXuXuXuXuXuXuXuXuXuXuXv.N   $ =       # # # #       #     $   #     0 4.<XuX2XuXuXuXuXuXuXuXuXuXuXuXuXuXuXuXuX",
"uXuXuXuXuXuXuXuXuXuXuXuXuXuXuXuXuXeX9XeX-Xv.! 2     # $       2 u x x x x n K x 1 # =   ` |.eXuXuXuXuXuXuXuXuXuXuXuXuXuXuXuXuXuX",
"uXuXuXuXuXuXuXuXuXuXuXuXuXuXuXuXuXuXeXeXuXuXF.*.n 2   # 0 A ` :.f.V.A././.`.`.N.p       4.2XuXuXuXuXuXuXuXuXuXuXuXuXuXuXuXuXuXuX",
"uXuXuXuXuXuXuXuXuXuXuXuXuXuXuXuX9XuXuXuXuXuXuXuX/.9.T ) p.'.2X9XeXuXuXuXuXuX9XQ.A # # u F.uXuXeXuXuXuXuXuXuXuXuXuXuXuXuXuXuXuXuX",
"uXuXuXuXuXuXuXuXuXuXuXuXuXuXuXuXuXuX9X9XeXuXeXeXuX9X<X<XeXuXuXuXuXuXeX9XeXuXuX`.p     G |.eXuXuXuXuXuXuXuXuXuXuXuXuXuXuXuXuXuXuX",
"uXuXuXuXuXuXuXuXuXuXuXuXuXuXuXuX2XuXuXuXuXuXuXuX9XuXuXuXuXuXuXeXeXuXeXuXeXuXeX/.N $   K @X2XuXuXuXuXuXuXuXuXuXuXuXuXuXuXuXuXuXuX",
"uXuXuXuXuXuXuXuXuXuXuXuXuXuXuXuXuXuXuXuXuXuXuXuXuXuXuXuXuXuXuXuXeXuXeXuXeXuXeX/.G   $ ` |.uXuXuXuXuXuXuXuXuXuXuXuXuXuXuXuXuXuXuX",
"uXuXuXuXuXuXuXuXuXuXuXuXuXuXuXuXuXuXuXuXuXuXuXuXuXuXuXuXuXuXuXuXeXuXuXuXuXuXeXQ.A   # 4.-XuXeXeXuXuXuXuXuXuXuXuXuXuXuXuXuXuXuXuX",
"uXuXuXuXuXuXuXuXuXuXuXuXuXuXuXuXuXuXuXuXuXuXuXuXuXuXuXuXuXuXuXuXuXuXuXuXeXuXeX/.n $ # j.eXuXeXuXuXuXuXuXuXuXuXuXuXuXuXuXuXuXuXuX",
"uXuXuXuXuXuXuXuXuXuXuXuXuXuXuXuXuXuXuXuXuXuXuXuXuXuXuXuXuXuXuXuXuXuXuXuXeXuXeX/.A   x Q.uXuXuXuXuXuXuXuXuXuXuXuXuXuXuXuXuXuXuXuX",
"uXuXuXuXuXuXuXuXuXuXuXuXuXuXuXuXuXuXuXuXuXuXuXuXuXuXuXuXuXuXuXuXuXuXuXuXeXuXuX/.G   4.<XeXuXuXuXuXuXuXuXuXuXuXuXuXuXuXuXuXuXuXuX",
"uXuXuXuXuXuXuXuXuXuXuXuXuXuXuXuXuXuXuXuXuXuXuXuXuXuXuXuXuXuXuXuXuXuXuXuXeXuXuX`.x 6 V.eXuXuXuXeXuXuXuXuXuXuXuXuXuXuXuXuXuXuXuXuX",
"uXuXuXuXuXuXuXuXuXuXuXuXuXuXuXuXuXuXuXuXuXuXuXuXuXuXuXuXuXuXuXuXuXuXeXuXeXuXuX'.G #.@XeXuXuX9XuXuXuXuXuXuXuXuXuXuXuXuXuXuXuXuXuX",
"uXuXuXuXuXuXuXuXuXuXuXuXuXuXuXuXuXuXuXuXuXuXuXuXuXuXuXuXuXuXuXuXuXuXeXuXuXuXuX'.&.'.uXuXuXuX-XuXuXuXuXuXuXuXuXuXuXuXuXuXuXuXuXuX",
"uXuXuXuXuXuXuXuXuXuXuXuXuXuXuXuXuXuXuXuXuXuXuXuXuXuXuXuXuXuXuXuXuXuXuXuXuXuXuXuXuXuXuXuXuXuXuXuXuXuXuXuXuXuXuXuXuXuXuXuXuXuXuXuX",
"uXuXuXuXuXuXuXuXuXuXuXuXuXuXuXuXuXuXuXuXuXuXuXuXuXuXuXuXuXuXuXuXuXuXuXuXuXuXuXuXuXuXuXuXuXuXuXuXuXuXuXuXuXuXuXuXuXuXuXuXuXuXuXuX",
"uXuXuXuXuXuXuXuXuXuXuXuXuXuXuXuXuXuXuXuXuXuXuXuXuXuXuXuXuXuXuXuXuXuXuXuXuXuXuXuXuXuXuXuXuXuXuXuXuXuXuXuXuXuXuXuXuXuXuXuXuXuXuXuX",
"uXuXuXuXuXuXuXuXuXuXuXuXuXuXuXuXuXuXuXuXuXuXuXuXuXuXuXuXuXuXuXuXuXuXuXuXuXuXuXuXuXuXuXuXuXuXuXuXuXuXuXuXuXuXuXuXuXuXuXuXuXuXuXuX",
"uXuXuXuXuXuXuXuXuXuXuXuXuXuXuXuXuXuXuXuXuXuXuXuXuXuXuXuXuXuXuXuXuXuXuXuXuXuXuXuXuXuXuXuXuXuXuXuXuXuXuXuXuXuXuXuXuXuXuXuXuXuXuXuX",
"uXuXuXuXuXuXuXuXuXuXuXuXuXuXuXuXuXuXuXuXuXuXuXuXuXuXuXuXuXuXuXuXuXuXuXuXuXuXuXuXuXuXuXuXuXuXuXuXuXuXuXuXuXuXuXuXuXuXuXuXuXuXuXuX",
"uXuXuXuXuXuXuXuXuXuXuXuXuXuXuXuXuXuXuXuXuXuXuXuXuXuXuXuXuXuXuXuXuXuXuXuXuXuXuXuXuXuXuXuXuXuXuXuXuXuXuXuXuXuXuXuXuXuXuXuXuXuXuXuX",
"uXuXuXuXuXuXuXuXuXuXuXuXuXuXuXuXuXuXuXuXuXuXuXuXuXuXuXuXuXuXuXuXuXuXuXuXuXuXuXuXuXuXuXuXuXuXuXuXuXuXuXuXuXuXuXuXuXuXuXuXuXuXuXuX"
};
