/* XPM */
static char *_597086f75d6449ec27e07b461c7ef40CAEXRTw3LVHPLXzu[] = {
/* columns rows colors chars-per-pixel */
"64 64 227 2 ",
"   c black",
".  c #010101",
"X  c #020202",
"o  c gray1",
"O  c #040404",
"+  c gray2",
"@  c #060606",
"#  c #070707",
"$  c gray3",
"%  c #090909",
"&  c gray4",
"*  c #0B0B0B",
"=  c #0C0C0C",
"-  c gray5",
";  c #0E0E0E",
":  c gray6",
">  c #101010",
",  c #111111",
"<  c gray7",
"1  c #131313",
"2  c gray8",
"3  c #151515",
"4  c #161616",
"5  c gray9",
"6  c #181818",
"7  c #191919",
"8  c gray10",
"9  c #1B1B1B",
"0  c gray11",
"q  c #1D1D1D",
"w  c #1E1E1E",
"e  c gray12",
"r  c #202020",
"t  c gray13",
"y  c #222222",
"u  c #232323",
"i  c gray14",
"p  c #252525",
"a  c gray15",
"s  c #272727",
"d  c #282828",
"f  c gray16",
"g  c #2A2A2A",
"h  c gray17",
"j  c #2C2C2C",
"k  c #2D2D2D",
"l  c gray18",
"z  c #2F2F2F",
"x  c gray19",
"c  c #313131",
"v  c #323232",
"b  c gray20",
"n  c #343434",
"m  c #353535",
"M  c gray21",
"N  c #373737",
"B  c gray22",
"V  c #393939",
"C  c #3A3A3A",
"Z  c gray23",
"A  c #3C3C3C",
"S  c gray24",
"D  c #3F3F3F",
"F  c gray25",
"G  c gray26",
"H  c #434343",
"J  c #444444",
"K  c gray27",
"L  c #464646",
"P  c gray28",
"I  c #484848",
"U  c gray29",
"Y  c #4B4B4B",
"T  c gray30",
"R  c #4E4E4E",
"E  c gray31",
"W  c #505050",
"Q  c #515151",
"!  c gray32",
"~  c #535353",
"^  c gray33",
"/  c #555555",
"(  c #565656",
")  c gray34",
"_  c #585858",
"`  c gray35",
"'  c #5A5A5A",
"]  c #5B5B5B",
"[  c gray36",
"{  c #5D5D5D",
"}  c #606060",
"|  c #626262",
" . c gray39",
".. c #646464",
"X. c #656565",
"o. c gray40",
"O. c #676767",
"+. c #6A6A6A",
"@. c gray42",
"#. c #6C6C6C",
"$. c gray43",
"%. c #6F6F6F",
"&. c gray44",
"*. c #727272",
"=. c gray45",
"-. c gray46",
";. c #767676",
":. c #777777",
">. c gray47",
",. c #797979",
"<. c #7B7B7B",
"1. c #7C7C7C",
"2. c #7E7E7E",
"3. c gray50",
"4. c #808080",
"5. c gray51",
"6. c #838383",
"7. c #848484",
"8. c gray52",
"9. c #868686",
"0. c gray53",
"q. c #888888",
"w. c #898989",
"e. c gray54",
"r. c gray55",
"t. c #8D8D8D",
"y. c #8E8E8E",
"u. c #909090",
"i. c #929292",
"p. c #939393",
"a. c gray58",
"s. c #959595",
"d. c #979797",
"f. c #989898",
"g. c gray60",
"h. c #9B9B9B",
"j. c gray61",
"k. c #9D9D9D",
"l. c gray62",
"z. c #9F9F9F",
"x. c #A0A0A0",
"c. c gray63",
"v. c #A2A2A2",
"b. c gray64",
"n. c #A4A4A4",
"m. c #A5A5A5",
"M. c gray65",
"N. c #A7A7A7",
"B. c gray66",
"V. c #A9A9A9",
"C. c gray67",
"Z. c gray68",
"A. c #AEAEAE",
"S. c #AFAFAF",
"D. c #B1B1B1",
"F. c #B2B2B2",
"G. c gray70",
"H. c #B4B4B4",
"J. c gray71",
"K. c #B6B6B6",
"L. c #B7B7B7",
"P. c gray72",
"I. c #B9B9B9",
"U. c gray73",
"Y. c #BBBBBB",
"T. c gray74",
"R. c gray75",
"E. c #C0C0C0",
"W. c #C1C1C1",
"Q. c gray76",
"!. c #C3C3C3",
"~. c gray77",
"^. c #C5C5C5",
"/. c #C6C6C6",
"(. c gray78",
"). c gray79",
"_. c #CACACA",
"`. c #CBCBCB",
"'. c #CDCDCD",
"]. c #CECECE",
"[. c gray81",
"{. c #D0D0D0",
"}. c gray82",
"|. c #D2D2D2",
" X c gray83",
".X c #D5D5D5",
"XX c gray84",
"oX c #D8D8D8",
"OX c gray85",
"+X c #DADADA",
"@X c gray86",
"#X c gainsboro",
"$X c #DDDDDD",
"%X c gray87",
"&X c #DFDFDF",
"*X c gray88",
"=X c #E1E1E1",
"-X c #E2E2E2",
";X c gray89",
":X c #E4E4E4",
">X c gray90",
",X c #E6E6E6",
"<X c #E7E7E7",
"1X c gray91",
"2X c #E9E9E9",
"3X c #EAEAEA",
"4X c gray92",
"5X c #ECECEC",
"6X c gray93",
"7X c #EEEEEE",
"8X c #EFEFEF",
"9X c gray94",
"0X c #F1F1F1",
"qX c gray95",
"wX c #F3F3F3",
"eX c #F4F4F4",
"rX c gray96",
"tX c #F6F6F6",
"yX c gray97",
"uX c #F8F8F8",
"iX c #F9F9F9",
"pX c gray98",
"aX c #FBFBFB",
"sX c gray99",
"dX c #FDFDFD",
"fX c #FEFEFE",
"gX c white",
/* pixels */
"gXgXgXgXgXgXgXgXgXgXgXgXgXgXgXgXgXgXgXgXgXgXgXgXgXgXgXgXgXgXgXgXgXgXgXgXgXpXpXgXgXgXgXgXpXgXgXgXgXgXgXgXgXgXgXgXgXgXgXgXgXgXgXgX",
"gXgXgXgXgXgXgXgXgXgXgXgXgXgXgXgXgXgXgXgXgXgXgXgXgXgXgXgXgXgXgXgXgXpXpXgXgXgXgXgXgXgXgXgXgXgXgXgXgXgXgXgXgXgXgXgXgXgXgXgXgXgXgXgX",
"gXgXgXgXgXgXgXgXgXgXgXgXgXgXgXgXgXgXgXgXgXgXgXgXgXgXgXgXgXgXgXgXgXgXgXgXpXpXpXyXgXgXgXgXgXgXgXpXgXgXgXgXgXgXgXgXgXgXgXgXgXgXgXgX",
"gXgXgXgXgXgXgXgXgXgXgXgXgXgXgXgXgXgXgXgXgXgXgXgXgXgXgXgXgXgXgXgXyXgXgXgXgXgXgXgXgXgXgXgXgXgXgXgXgXgXgXgXgXgXgXgXgXgXgXgXgXgXgXgX",
"gXgXgXgXgXgXgXgXgXgXgXgXgXgXgXgXgXgXgXgXgXgXgXgXgXgXgXgXgXgXgXgXgXgXgXpXpXpXpXpXgXpXpXpXpXpXpXgXgXgXgXgXgXgXgXgXgXgXgXgXgXgXgXgX",
"gXgXgXgXgXgXgXgXgXgXgXgXgXgXgXgXgXgXgXgXgXgXgXgXgXgXgXgXgXgXgXgXgXgXpXgXgXgXpXgXgXgXgXgXgXgXgXgXgXgXgXgXgXgXgXgXgXgXgXgXgXgXgXgX",
"gXgXgXgXgXgXgXgXgXgXgXgXgXgXgXgXgXgXgXgXgXgXgXgXgXgXgXgXgXgXgXgXyXpXgXgX9X,X8XgXyXpXgXgXgXgXgXgXgXgXgXgXgXgXgXgXgXgXgXgXgXgXgXgX",
"gXgXgXgXgXgXgXgXgXgXgXgXgXgXgXgXgXgXgXgXgXgXgXgXgXgXgXgXgXgXgXgXpXgXgX8XZ.>.7.Z.OX8XpXgXgXpXpXgXgXgXgXgXgXgXgXgXgXgXgXgXgXgXgXgX",
"gXgXgXgXgXgXgXgXgXgXgXgXpXgXgXgXgXgXgXgXgXgXgXgXgXgXgXgXgXgXgXgXgX2XgXyX .#   # I r.^.9XgXpXpXgXgXgXgXgXgXgXgXgXgXgXgXgXgXgXgXgX",
"gXgXgXgXgXgXgXgXpXgXgXgXgXgXgXgXgXgXgXgXgXgXgXgXgXgXgXgXgXgXgXgXgXgXgX9XU.P   #   q E x.2XgXgXgXgXgXgXgXgXgXgXgXgXgXgXgXgXgXgXgX",
"gXgXgXgXgXgXgXgXpXgXgXgXgXgXgXgXgXgXgXgXgXgXgXgXgXgXgXgXgXgXgXgXpXgXgXpXgXx.k %       Z l.8XgXpXgXgXgXgXgXgXgXgXgXgXgXgXgXgXgXgX",
"gXgXgXgXgXgXgXgXgXgXgXgXpXpXgXgXgXgXgXgXgXgXgXgXgXgXgXgXgXgXgXgXpXgXgXgXgX8Xd.t > #     I _.gXpXgXgXgXgXgXgXgXgXgXgXgXgXgXgXgXgX",
"gXgXgXgXgXgXgXgXgXpXgXpXgXgXgXgXgXgXgXgXgXgXgXgXgXgXgXgXgXgXgXgXgX9XgXgX9XgX2X3.9 # #   k U.gXgXgXgXgXgXgXgXgXgXgXgXgXgXgXgXgXgX",
"gXgXgXgXgXgXgXgXgXgXgXgXgXgXgXgXgXgXgXgXgXgXgXgXgXgXgXgXgXgXgXgXgXpXpXgXgXgXgX$XW ;     n L.gXgXgXgXgXgXgXgXgXgXgXgXgXgXgXgXgXgX",
"gXgXgXgXgXgXgXgXgXgXgXgXyXyXyXgXgXgXgXgXgXgXgXgXgXgXgXgXgXgXgXgXgXgXpXpXgXgXgXgXd.t   # Z E.gXgXgXgXgXgXgXgXgXgXgXgXgXgXgXgXgXgX",
"gXgXgXgXgXgXgXgXgXgXpX2XOXOX,XpXgXgXgXgXgXgXgXgXgXgXgXgXgXgXgXgXgXgXgXgXpXgXgXyXi.q     Z {.gXyXgXgXgXgXgXgXgXgXgXgXgXgXgXgXgXgX",
"gXgXgXgXgXgXgXgXpXyXgXx.' / >.T.-XpXgXgXgXgXpXpXgXgXgXgXgXgXgXgXgXgXgXgXgXgXgXgXi.a     n ].pXgXgXgXgXgXgXgXgXgXgXgXgXgXgXgXgXgX",
"gXgXgXgXgXgXgXgXgXgX9XU.x     g ;.E.pXgXgXgXgXgXgXgXgXgXgXgXgXgXgXgXgXgXgXgXgXgXi.a   # n _.gXgXgXgXgXgXgXgXgXgXgXgXgXgXgXgXgXgX",
"gXgXgXgXgXgXgXgXgXpX9X9X*.>     % [ U.8XgXgXgXgXgXgXgXgXgXgXgXgXgXgXgXgXgXgXgXgXi.t     n ].gXgXgXgXgXgXgXgXgXgXgXgXgXgXgXgXgXgX",
"gXgXgXgXgXgXgXgXgXpXgXgX].W 9     # [ {.gXpXyXgXgXgXgXgXgXgXgXgXgXgXgXgXgXgXgXgXi.a   # n ].gXgXgXgXgXgXgXgXgXgXgXgXgXgXgXgXgXgX",
"gXgXgXgXgXgXgXgXgXpXgXyXpXl.k   %   n E.gXpXyXgXgXgXgXgXgXgXgXgXgXgXgXgXgXgXgXgXi.t     n ].gXgXgXgXgXgXgXgXgXgXgXgXgXgXgXgXgXgX",
"gXgXgXgXgXgXgXgXyXgXyXpXgX8XO.9 ;   H ^.gXgXpXgXgXgXgXgXgXgXgXgXgXgXgXgXgXgXgXgXi.a   # n ].gXgXgXgXgXgXgXgXgXgXgXgXgXgXgXgXgXgX",
"gXgXgXgXgXgXgXgXgXgXyXgXgXgXV.x     / ].pXgXgXpXgXgXgXgXgXgXgXgXgXgXgXgXgXgXgXgXi.t     n ].gXgXgXgXgXgXgXgXgXgXgXgXgXgXgXgXgXgX",
"gXgXgXgXgXgXgXgXgXgXpXgXgXpX2XP     [ OXgXgXgXgXgXgXgXgXgXgXgXgXgXgXgXgXgXgXgXgXi.a   # n ].pXgXgXgXgXgXgXgXgXgXgXgXgXgXgXgXgXgX",
"gXgXgXgXgXgXgXgXpXgXgXgXgXgXyX*.9   [ -XgXpXgXgXgXgXgXpXpXpXgXgXpXgXgXgXgX9X,X$X;.a     Z {.gXyXpXgXpXgXgXpXgXgXgXgXgXgXgXgXgXgX",
"gXgXgXgXgXgXgXgXgXpXgXgXpXpXpX7.a   / OXgXpXgXgXpXpXgXgXgXyX2X$XXX].^.U.M.i.3.+.H %   % Z E.gXgXpXgXyXgXpXyXgXgXgXgXgXgXgXgXgXgX",
"gXgXgXgXgXgXgXgXgXyXgXgXpXpXgXl.t   I E.2X$X$XXX{.].T.Z.l.e.;.+./ H g > % # #           n {.pX$XOXE.V.L._.2XgXgXgXgXgXgXgXgXgXgX",
"gXgXgXgXgXgXgXgXgXyXgXgXgXgXgXl.g # g *.>.#. .W S x q ; % # % %                     ;   g d.l.*.Z 9 # 9 S e.,X9XgXgXgXgXgXgXgXgX",
"gXgXgXgXgXgXgXgXgXgXgXgXpXgXgX7.9     #                         % 9 g x n Z S H S         #   %           I _.gXgXgXgXgXgXgXgXgX",
"gXgXgXgXgXgXgXgXgXgXgXpXpXgXpX;.q % #       ; %   # 4 t k Z P E O.*.7.d.Z._.,XgXl.k % # g x a k q 9 %     H E.gXgXgXgXgXgXgXgXgX",
"gXgXgXgXgXgXgXgXgXgXgXpXpXgXpX7.4     # # % 9 t Z E #.e.V.E.-X9XpXgXgXgXgXgXpXpXZ.x     +.F.M.r.#.O.P P  .l.2XgXgXgXgXgXgXgXgXgX",
"gXgXgXgXgXgXgXgXgXpXgXgXgXgXgXl.x %   q n W 3.V.XX,XgXgXgXpXgXgXgXgXyXpXgXgXgXgXE.Z   t F.gXgXpXgXgX8X2XyXgXgXpXgXgXgXgXgXgXgXgX",
"gXgXgXgXgXgXgXgXgXgXgXgXgXgXyX2X*./ E 3.E.8XgXgXgXgXgXgXgXgXgXgXgXgXgXgXgXpXpXgX_.S   O.$XgXgXpXgXgXgXgXgXgXgXgXgXgXgXgXgXgXgXgX",
"gXgXgXgXgXgXgXgXgXgXpXgXgXgXpXyX9X2X2XpXgXgXpXpXgXgXpXpXpXgXgXgXgXgXgXgXgXpXgXgX{.n t l.8XgXgXgXgXgXgXgXgXgXgXgXgXgXgXgXgXgXgXgX",
"gXgXgXgXgXgXgXgXgXgXpXgXgXgXgXgXgXgXgXgXgXpXgXgXgXgXgXgXgXgXgXgXgXpXpXgXgXgXgXgX].x ' OXpXpXpXgXgXgXgXgXgXgXgXgXgXgXgXgXgXgXgXgX",
"gXgXgXgXgXgXgXgXgXgXgXpXgXgXgXgXgXpXyXpXgXgXgXgXpXgXgXgXgXgXpXyXgXgXgXgXgXgXgXgX{.O.M.gXgXgXgXgXgXgXgXgXgXgXgXgXgXgXgXgXgXgXgXgX",
"gXgXgXgXgXgXgXgXgXgXgXgXgXgXgXgXgXgXgXgXgXgXpX9XgXgXgXgXgXpXgXgXgXgXgXgXpXpXpXpX9XE.2XgXgXgXyXgXgXgXgXgXgXgXgXgXgXgXgXgXgXgXgXgX",
"gXgXgXgXgXgXgXgXgXgXgXgXgXgXgXpXyXyXyXpXpXpXgXgXgXgXgXpXpXgXgXgXgXgXgXgXgXgXgXgXgXgXgXgXpXgX9XgXgXgXgXgXgXgXgXgXgXgXgXgXgXgXgXgX",
"gXgXgXgXgXgXgXgXgXgXgXgXgXgXgXgXgXgXgXgXgXgXgXgX9XpXgXgXgXpXyXpXgXgXgXgXpXyX-X_.F.T.OXpXgXgXgXgXgXgXgXgXgXgXgXgXgXgXgXgXgXgXgXgX",
"gXgXgXgXgXgXgXgXgXgXgXgXpXgXgXgXgXpXpXgXgXgX,X].$X8XpXgXpX2X$XXXXXXX{.].^.M.;.P > a #.{.pXyXgXpXgXgXgXgXgXgXgXgXgXgXgXgXgXgXgXgX",
"gXgXgXgXgXgXgXgXgXgXgXgXgXgXgXgX9XgXgXpXgXyX>.S / g.E.2X2Xx. .I W E E x k >         % +._.gXgXgXgXgXgXgXgXgXgXgXgXgXgXgXgXgXgXgX",
"gXgXgXgXgXgXgXgXgXgXgXgXgXgXgXgXgXgXpXpXgXyXe.9 %   t i.{.x.E 4 ;   %   # # 4 4 ;     q g.9XgXpXgXgXgXgXgXgXgXgXgXgXgXgXgXgXgXgX",
"gXgXgXgXgXgXgXgXgXgXgXgXgXgXgXgXgX9XgXgXpXgX_.H %     % I L.^.3.P t a n ' ;.7.' q   #   r.9XgXgXgXgXgXgXgXgXgXgXgXgXgXgXgXgXgXgX",
"gXgXgXgXgXgXgXgXgXgXgXgXgXgXgXgXgXyXgXgXgXgXgXF.H ; %     >.2XyX{.M.V.T.$XyXyXx.g # % q U.gXgXgXgXgXgXgXgXgXgXgXgXgXgXgXgXgXgXgX",
"gXgXgXgXgXgXgXgXgXgXgXgXgXgXgXgXgXgXgXpXgX9XgXyXg.t   ;   W ].gXgX9XgXgXgXgXgXZ.t %   O.,XgXgXgXgXgXgXgXgXgXgXgXgXgXgXgXgXgXgXgX",
"gXgXgXgXgXgXgXgXgXgXgXgXgXgXgXgXgXgXpXpXgXyXgXgX8X;.>     [ ,XgXgXgXgXgXpXyXgXx.a #   d.9XyXyXgXgXgXgXgXgXgXgXgXgXgXgXgXgXgXgXgX",
"gXgXgXgXgXgXgXgXgXgXgXgXgXgXgXgXgXgXpXgXgXgXyXgXgXd.9   # S _.yXgXgXpXpXgXgXgXx.g   > L.yXgXpXgXgXgXgXgXgXgXgXgXgXgXgXgXgXgXgXgX",
"gXgXgXgXgXgXgXgXgXgXgXgXgXgXgXgXgXpXgXgX8XgXpXgXgXE.x     n ].pXyXgXgXgXgXpXgXM.a   x ^.pXgXgXpXgXgXgXgXgXgXgXgXgXgXgXgXgXgXgXgX",
"gXgXgXgXgXgXgXgXgXgXgXgXgXgXgXgXgXgXgXgXgXgXgXgXgX-XP     a ^.gXyXgXpXgXpXgXgXM.Z   [ XX9XgXgXyXgXgXgXgXgXgXgXgXgXgXgXgXgXgXgXgX",
"gXgXgXgXgXgXgXgXgXgXgXgXgXgXgXgXgXgXgXgXgXgXgXgXgXyX' > # t ^.gXpXgXpXgXpXgXpXM.t # e.pXgXgXgXgXgXgXgXgXgXgXgXgXgXgXgXgXgXgXgXgX",
"gXgXgXgXgXgXgXgXgXgXgXgXgXgXgXgXgXgXgXgXgXgXgXgXgXgX5.q # # Z.8X,X2X$X-X{._.E.3.; 4 ;.-XgX9XpXgXgXgXgXgXgXgXgXgXgXgXgXgXgXgXgXgX",
"gXgXgXgXgXgXgXgXgXgXgXgXgXgXgXgXgXgXgXgXgXgXgXgXpXgXL.k      .5.5.3.+. .P k q   %   a M.yXgXgXgXgXgXgXgXgXgXgXgXgXgXgXgXgXgXgXgX",
"gXgXgXgXgXgXgXgXgXgXgXgXgXgXgXgXgXgXgXgXgXgXgXgXgXpX$XH %   ; #       # # # %         5.8XgXgXgXgXgXgXgXgXgXgXgXgXgXgXgXgXgXgXgX",
"gXgXgXgXgXgXgXgXgXgXgXgXgXgXgXgXgXgXgXgXgXgXgXgXgXpXpXO.  # t g x x g k g g g k n S W L.pX9XyXgXgXgXgXgXgXgXgXgXgXgXgXgXgXgXgXgX",
"gXgXgXgXgXgXgXgXgXgXgXgXgXgXgXgXgXgXgXgXgXgXgXgXgXgXgXx.x Z i.F.L.L.L.F.L.L.F.L.F.^.OXgXgXgXgXgXgXgXgXgXgXgXgXgXgXgXgXgXgXgXgXgX",
"gXgXgXgXgXgXgXgXgXgXgXgXgXgXgXgXgXgXgXgXgXgXgXgXgXpXyX,Xe.r.yXpXpXgXgXpXgXgXyXgXpXgXgXpXpXgXgXyXgXgXgXgXgXgXgXgXgXgXgXgXgXgXgXgX",
"gXgXgXgXgXgXgXgXgXgXgXgXgXgXgXgXgXgXgXgXgXgXgXgXgXgXgXgXgXgXgXgXgXgXgXgXgXgXgXgXgXgXgXgXgXgXgXgXgXgXgXgXgXgXgXgXgXgXgXgXgXgXgXgX",
"gXgXgXgXgXgXgXgXgXgXgXgXgXgXgXgXgXgXgXgXgXgXgXgXgXgXgXgXgXgXgXgXgXgXgXgXgXgXgXgXgXgXgXgXgXgXgXgXgXgXgXgXgXgXgXgXgXgXgXgXgXgXgXgX",
"gXgXgXgXgXgXgXgXgXgXgXgXgXgXgXgXgXgXgXgXgXgXgXgXgXgXgXgXgXgXgXgXgXgXgXgXgXgXgXgXgXgXgXgXgXgXgXgXgXgXgXgXgXgXgXgXgXgXgXgXgXgXgXgX",
"gXgXgXgXgXgXgXgXgXgXgXgXgXgXgXgXgXgXgXgXgXgXgXgXgXgXgXgXgXgXgXgXgXgXgXgXgXgXgXgXgXgXgXgXgXgXgXgXgXgXgXgXgXgXgXgXgXgXgXgXgXgXgXgX",
"gXgXgXgXgXgXgXgXgXgXgXgXgXgXgXgXgXgXgXgXgXgXgXgXgXgXgXgXgXgXgXgXgXgXgXgXgXgXgXgXgXgXgXgXgXgXgXgXgXgXgXgXgXgXgXgXgXgXgXgXgXgXgXgX",
"gXgXgXgXgXgXgXgXgXgXgXgXgXgXgXgXgXgXgXgXgXgXgXgXgXgXgXgXgXgXgXgXgXgXgXgXgXgXgXgXgXgXgXgXgXgXgXgXgXgXgXgXgXgXgXgXgXgXgXgXgXgXgXgX",
"gXgXgXgXgXgXgXgXgXgXgXgXgXgXgXgXgXgXgXgXgXgXgXgXgXgXgXgXgXgXgXgXgXgXgXgXgXgXgXgXgXgXgXgXgXgXgXgXgXgXgXgXgXgXgXgXgXgXgXgXgXgXgXgX",
"gXgXgXgXgXgXgXgXgXgXgXgXgXgXgXgXgXgXgXgXgXgXgXgXgXgXgXgXgXgXgXgXgXgXgXgXgXgXgXgXgXgXgXgXgXgXgXgXgXgXgXgXgXgXgXgXgXgXgXgXgXgXgXgX"
};
