/* XPM */
static char *_188f8dc0264449dc204de8f648bf168l58PaLqBxSKLgzhf[] = {
/* columns rows colors chars-per-pixel */
"64 64 245 2 ",
"   c None",
".  c #763A13",
"X  c #5A5615",
"o  c #5F4E15",
"O  c #6D5217",
"+  c #4D6D19",
"@  c #4B6815",
"#  c #536E1A",
"$  c #556817",
"%  c #4E7319",
"&  c #4C7417",
"*  c #557917",
"=  c #53731A",
"-  c #5A751B",
";  c #557B1C",
":  c #5C7C1C",
">  c #547316",
",  c #637D1D",
"<  c #6B7E1D",
"1  c #7A791E",
"2  c #72651E",
"3  c #5A7C22",
"4  c #587A27",
"5  c #53762C",
"6  c #677A28",
"7  c #797923",
"8  c #647A36",
"9  c #7C7738",
"0  c #756B37",
"q  c #707C48",
"w  c #B11312",
"e  c #923015",
"r  c #B1331A",
"t  c #9D1811",
"y  c #D91A17",
"u  c #EC1318",
"i  c #F51318",
"p  c #F10E16",
"a  c #D7271A",
"s  c #CA361B",
"d  c #E8231B",
"f  c #E41F26",
"g  c #F61D22",
"h  c #DD262A",
"j  c #D0372A",
"k  c #E1232A",
"l  c #E1262B",
"z  c #E4373D",
"x  c #E22B31",
"c  c #91551D",
"v  c #A5581D",
"b  c #B6531E",
"n  c #8F721D",
"m  c #815523",
"M  c #B75630",
"N  c #877B27",
"B  c #9D7528",
"V  c #907532",
"C  c #AA7921",
"Z  c #B0772E",
"A  c #AD781C",
"S  c #C37628",
"D  c #CC4F2D",
"F  c #E33B43",
"G  c #8E734E",
"H  c #D95951",
"J  c #E54F52",
"K  c #E85C61",
"L  c #E8676B",
"P  c #EB7176",
"I  c #5B821D",
"U  c #58831A",
"Y  c #64821E",
"T  c #6A831E",
"R  c #688A1F",
"E  c #73851F",
"W  c #79891D",
"Q  c #73921F",
"!  c #5D8423",
"~  c #5B8926",
"^  c #598937",
"/  c #58913C",
"(  c #638622",
")  c #6A8522",
"_  c #648C22",
"`  c #6B8C22",
"'  c #63852C",
"]  c #69892C",
"[  c #738B22",
"{  c #7C8C21",
"}  c #778529",
"|  c #639223",
" . c #6C9322",
".. c #6B972A",
"X. c #729423",
"o. c #749A25",
"O. c #7A9C25",
"+. c #7A9427",
"@. c #698936",
"#. c #778736",
"$. c #6A9534",
"%. c #759939",
"&. c #7AA326",
"*. c #79A629",
"=. c #7DA93D",
"-. c #3D9377",
";. c #528F50",
":. c #768847",
">. c #769747",
",. c #7B8953",
"<. c #7E9A54",
"1. c #7D9557",
"2. c #6A894D",
"3. c #7EA24B",
"4. c #4D9768",
"5. c #43906B",
"6. c #7A8F62",
"7. c #42A176",
"8. c #898B1D",
"9. c #838C22",
"0. c #888723",
"q. c #978622",
"w. c #8B9223",
"e. c #859726",
"r. c #989826",
"t. c #878836",
"y. c #958D3B",
"u. c #899436",
"i. c #999834",
"p. c #A39D27",
"a. c #A98A33",
"s. c #87A628",
"d. c #99A82A",
"f. c #97B72D",
"g. c #8CAF2F",
"h. c #A7A42A",
"j. c #BAA82B",
"k. c #AEB530",
"l. c #D58E35",
"z. c #C2AD2D",
"x. c #C6B42F",
"c. c #D6B52F",
"v. c #D7B835",
"b. c #C3B233",
"n. c #E2BD35",
"m. c #ADC734",
"M. c #B6C532",
"N. c #B9D036",
"B. c #F8C835",
"V. c #E6C333",
"C. c #DEC134",
"Z. c #9A8845",
"A. c #86995A",
"S. c #8E8F52",
"D. c #AF8A52",
"F. c #86A55A",
"G. c #90AF54",
"H. c #A6A54D",
"J. c #888A67",
"K. c #9A8364",
"L. c #899868",
"P. c #979278",
"I. c #908C76",
"U. c #AF9775",
"Y. c #8CA865",
"T. c #95AB6A",
"R. c #96B56B",
"E. c #97AA76",
"W. c #9DB57B",
"Q. c #A3B979",
"!. c #A9A769",
"~. c #D5B851",
"^. c #D39370",
"/. c #D4AE7D",
"(. c #D59757",
"). c #B5CA46",
"_. c #AEC57C",
"`. c #C4C774",
"'. c #379A8E",
"]. c #34A997",
"[. c #2D9FA6",
"{. c #2FA9AE",
"}. c #5DA990",
"|. c #1DB1CF",
" X c #2BB5C9",
".X c #18BAE4",
"XX c #4CB9DA",
"oX c #12C9F5",
"OX c #72C3C1",
"+X c #9EB484",
"@X c #8CAE8B",
"#X c #A5B885",
"$X c #B0B492",
"%X c #B7BEA4",
"&X c #9EA38D",
"*X c #ED9798",
"=X c #ED928F",
"-X c #CFB191",
";X c #EF9EA1",
":X c #C9BCAA",
">X c #F0A7A8",
",X c #E7BE9F",
"<X c #AEC193",
"1X c #B4C49C",
"2X c #B5C898",
"3X c #ABC488",
"4X c #BCCAA8",
"5X c #B6D0A9",
"6X c #D5CD9D",
"7X c #ECEE8D",
"8X c #C4C9AA",
"9X c #CCC4B4",
"0X c #CAD6B7",
"qX c #D4DCB9",
"wX c #D0CBAF",
"eX c #E7CEB0",
"rX c #E7E4A2",
"tX c #B0D4CF",
"yX c #BCE4F1",
"uX c #83D0EB",
"iX c #CDC7C4",
"pX c #D3DDC3",
"aX c #D5DDCA",
"sX c #D9DFCE",
"dX c #DDD4CA",
"fX c #D4D0C2",
"gX c #F5C2C3",
"hX c #E3DBC8",
"jX c #F7D8D6",
"kX c #E4D4CB",
"lX c #D9E1CD",
"zX c #DDE4D3",
"xX c #E5EBDC",
"cX c #E2E7D8",
"vX c #E5E3C5",
"bX c #EAEDE3",
"nX c #E9ECE5",
"mX c #F4EDE8",
"MX c #EEF2E9",
"NX c #EDF2E6",
"BX c #F1F4ED",
"VX c #F9F9EF",
"CX c #FBFCFA",
"ZX c #F7F8F4",
"AX c #FBDFE1",
/* pixels */
"                                                                                                                                ",
"                                                                                                                                ",
"                                                                                                                                ",
"                                                                                                                                ",
"                                                                                                                                ",
"                                                            jXjX                                                                ",
"                                                          jX*XL P                                                               ",
"                                                        ,XP J f l J P                                                           ",
"                                                  gX*XP K z h k f x z J P =X                                                    ",
"                                                      L z h f k k f x F L                                                       ",
"                                                      ;XK z f f f k z L >X                                                      ",
"                                                      ;XK z h h h f z K ;X                                                      ",
"                                                    ;XL J j j M M s j F L ;X                                                    ",
"                                                  gX*XP H M C 9.N V M H L *XgX                                                  ",
"                                                  rX6X-XQ.d.&.&.X.+.u.!.-XwXcX                                                  ",
"                                              vX7X`.G.3.*.*.&.&.O.o...%.%.F.#XqXzXzXzX                                          ",
"                                    xX0XW.R.R.R.m.f.f.*.*.*.*.&.&.O.Q  . .| ..>.3.<.F.G.5XzX                                    ",
"                                      cX2XF...o.*.g.f.m.m.f.*.*.&.O.o.O.[ Q  .| | ] 3.5XcXCX                                    ",
"                                        NX0XR.*.*.*.g.m.N.f.*.*.O.O.q.b s s v X.%.R.0XBX                                        ",
"                                              0X5XR.G.s.f.N.N.m.r.n b d i i l D -XsX                                            ",
"                                                    5XR.g.g.f.f.d.Z s p i p g J >X                                              ",
"                                              CX  pX3X3...&.&.g.M.j.Z s y x K *XjX                                              ",
"                                        mXeX6X8X2XR.3... ...&.s.f.M.z.l.S S (.7X7X                                              ",
"                                CXcXqX6X-X(.a.*.*... .| o.o.&.O.s.d.M.M.d.i.d.).).).)._.3X0XlXBX                                ",
"                                CXlX_.F.w.C A 8.Q &.s.d.d.d.s.&.Q O.O.e.o.X. .X.Q  . .] 3.W.0XMX                                ",
"                                  NX0X_.=.w.C S q.h.x.V.C.k.d.&.o.Q X.`  ._ _ R R U _ %.W.0X                                    ",
"                                      xX8XR.a.S i.h.x.C.c.j.d.&.X. .` ` ` R _ ] >.F.T.1X                                        ",
"                                          AX  eX!.u.u.s.e.O.O.o.X.../ / ^ ^ ] >.#X0X                                            ",
"                                          ZXbXhX^.q.E ~ | |  .o.%.4.].|.].5.~ >.<XqX                                            ",
"                            CXZXZXZXBXBXzX2XW.G.y.0.E |  . .o.$.4.[..XoX|.].5.^ >.F.Y.A.#X0XzXcXcXNX                            ",
"                          BXaX<X_.W.Q.W.R.>.~ ~ _ 9.N q.Q o.o...;.'.{.|.[.-.^ ; ! 9 t.9 #.<.Y.Y.W.4XNX                          ",
"                          BXlX<X>.$.| | | | _ _  .{ q.0.o.O.o.o...$.;.4.;.^ ! ! ) } 9 ' : ! ~ >.#X0XBX                          ",
"                            VXcX2XF...R E c v v N [ o.o.9.r.r.e.+.` ` ] ` R R ) t.9 6 : I ] F.<XpX                              ",
"                                NX0XQ.G v s d a b n [  .+.q.q.q.9.[ R R ` ) ] } t.t.#.~ >.E.4XzX                                ",
"                                  BXqX^.a u i i a b 1 |  .9.q.A 0.E T R } t.t.9 #.:.A.T.<X                                      ",
"                                    AX>XH l u y r c 1 | | Q { q.N W N 1 7 t.G t.6 >.T.4XlX                                      ",
"                              MXlXqX0X8XU.M r r c 1 Y _ `  .[ { W N B V N V B N n N D./.,XeXqX                                  ",
"                        NXlXlX0XQ.Y.Y.F.F.9 2 7 ) ( _ `  .[ +.t.0.y.Z.Z N N n N n n C Z D.U.&X@X5X5XpXxX                        ",
"                        xX4X#XY.] U * U U ! ~ | R `  .` ..u.Z.D.t.t.} } E E 1 1 1 N 2 8 2.}.{.{.].}.3XaX                        ",
"                        NX8XE.$.~ ! I ( _ [ } #.` ] +.+.e.Z.D.D.Z.9.{ { 9.E Y Y I I 4 5 '.|..X.XXXOX5XnX                        ",
"                          CXzX<X3.#.#.} ) Z.D.Z.t.t.Z.y.+.t.y.i.h.z.x.x.j.p.8.T : : 3 5 7.[.XXXXuXyX                            ",
"                                0X$XU.S.#.Z.G Z.+.#.t.u. . .X.e.b.V.B.B.B.c.h.E I : ; ! 6.@XtXyX                                ",
"                                  cX9X$XE.>.] ) Y R R | ( _ ` X.j.V.B.B.B.c.p.) ; = ! 1.<XaXxXNX                                ",
"                                  iX%X#XT.@.; ! ~ ~ ~ U _ ( R [ r.z.c.v.z.r.9., = % : 2.!.`.`.$X0XcXMXMXNXMXMXZX                ",
"                  zX0X1X1X<X1X1X$XP.L.<.@.! 3 ~ 4.-.7.4.^ _ ` ` { w.r.r.8.< , - = = - 3 } u.u.@.A.E.W.E.W.#X4XnX                ",
"                  lX1XY.>.>.%.>.2.@.:.,.,.] ~ -.{. X X{.4.@.` [ T T T E < , : : : E { W , - - = 4 5 5 8 :.E.iXMX                ",
"                    pX$X1.' 3 ; * I 8 J.&X:.^ -.|..X.X{.5.2.` ` Y Y , , , , , , W w.r.{ , = % % & + 3 2.+X0XNXZX                ",
"                      xX4XE.@.' [ R ' :.I.:.^ ;.'.[.[.-.;...` ) ) , , , < , Y E w.w.9.< - = % + + 6 A.1XlXMX                    ",
"                          aX#Xi.h.p.w.#.@.' @.A.2.;.;.^ ` ` ` ` T < < E 9.W < E E T - 4 4 - $ O 2 Z.:XbXCX                      ",
"                          ZXrX~.n.c.j.9.; ! :.I.:.@.] #.) ) ) ` T E w.r.p.w.< , - = = % $ O c s k J *XjXZX                      ",
"                MXNXbXnXNXxX6X~.v.z.r.) ; ; ~ :.' :.A.J.] ) { } w.r.p.p.W , - = = + + + O e a u i g z =X9XcXzXxXBXZX            ",
"                8X+XR.T.T.Y.A.u.w.W T ; * % 3 ; ; ' :.S.S.H.z.z.r.9.E E , # = = = # % % X e w u u y w c 0 8 2.1.4XnX            ",
"                pXE.>.4 ; 3 ; = * ; % ; ; * ; ; * { h.v.~.-X-X-XS.6 - 3 3 - - # # # # + $ X . t w t . @ @ @ ,.5XxX              ",
"                BX%X>.4 & % % % & * I { d.{ 9.h.9.{ w.r.h.Z.L.S.S.S.J.J.6 - - - = = # # + $ X X X X @ @ @ 5 L.fX                ",
"                  lX2XH.r.{ Q w.r.9.E [ w.[ W r.{ ) E [ [ ` } } ' 9 S.q 8 S.I.&Xq 6 > > # # # + @ @ @ @ q @XtX                  ",
"                      qX`.u.W W 8.W R , T Y Y ) Y ( R ) ) ) ( ( 6 , 6 , ' G J.K.q q ,.I.J.q q q J.I.6.q q %XjX                  ",
"                        vX<XW.!.Q.S.] * * * ; I I I Y Y Y T T T , : - - - 6 6 6 6 8 q I.q q q 6.&XiXiX%X4XaX                    ",
"                                zX4XW.A.1.~ = * * * * * * - , 6 2 6 - + $ @ @ @ + # 8 q L.P.P.+XiX  CXBX                        ",
"                                        0XW.1.1.<.<.<.A.A.Y.A.G 0 q S.1.1.1.1.1.6.A.L.+X0XzXzXzX                                ",
"                                          cXaXaXaXaXaXaXzXzXiXG G G $XdXsXsXlXlXsXsXzXMXCX                                      ",
"                                                          CXdXK.G P.9XCX                                                        ",
"                                                          mX9XG m G :XmX                                                        ",
"                                                        CXiX&XG G G U.:XmX                                                      ",
"                                                        CXjX:X:X:X:X9XfX                                                        "
};
