/* XPM */
static char *_75c674990c64ee9b58f590bc68c884bUoG57iqcbjqd6k6B[] = {
/* columns rows colors chars-per-pixel */
"64 64 201 2 ",
"   c black",
".  c #010101",
"X  c #020202",
"o  c gray1",
"O  c #040404",
"+  c gray2",
"@  c #060606",
"#  c #070707",
"$  c gray3",
"%  c #090909",
"&  c gray4",
"*  c #0B0B0B",
"=  c #0C0C0C",
"-  c gray5",
";  c #0E0E0E",
":  c gray6",
">  c #101010",
",  c gray7",
"<  c #131313",
"1  c gray8",
"2  c #161616",
"3  c gray9",
"4  c gray10",
"5  c #1B1B1B",
"6  c gray11",
"7  c #1D1D1D",
"8  c gray12",
"9  c #202020",
"0  c gray13",
"q  c #222222",
"w  c #232323",
"e  c gray14",
"r  c #252525",
"t  c gray15",
"y  c #272727",
"u  c #282828",
"i  c gray16",
"p  c #2A2A2A",
"a  c gray17",
"s  c #2C2C2C",
"d  c #2D2D2D",
"f  c gray18",
"g  c #2F2F2F",
"h  c gray19",
"j  c #313131",
"k  c #323232",
"l  c gray20",
"z  c #343434",
"x  c #353535",
"c  c gray21",
"v  c #373737",
"b  c gray22",
"n  c #393939",
"m  c #3A3A3A",
"M  c gray23",
"N  c gray24",
"B  c #3E3E3E",
"V  c #3F3F3F",
"C  c gray25",
"Z  c #414141",
"A  c #434343",
"S  c #444444",
"D  c #484848",
"F  c gray29",
"G  c #4B4B4B",
"H  c #4C4C4C",
"J  c gray30",
"K  c #4E4E4E",
"L  c #505050",
"P  c #515151",
"I  c gray32",
"U  c #535353",
"Y  c #555555",
"T  c #585858",
"R  c gray35",
"E  c #5A5A5A",
"W  c #5B5B5B",
"Q  c #5D5D5D",
"!  c #5F5F5F",
"~  c gray38",
"^  c #626262",
"/  c #646464",
"(  c #656565",
")  c gray40",
"_  c #676767",
"`  c DimGray",
"'  c gray42",
"]  c gray43",
"[  c gray44",
"{  c #727272",
"}  c gray45",
"|  c #767676",
" . c #777777",
".. c gray47",
"X. c #797979",
"o. c #7B7B7B",
"O. c gray50",
"+. c gray51",
"@. c #838383",
"#. c #848484",
"$. c gray52",
"%. c #868686",
"&. c gray53",
"*. c #888888",
"=. c #898989",
"-. c gray54",
";. c #8B8B8B",
":. c gray55",
">. c #8E8E8E",
",. c gray56",
"<. c #909090",
"1. c gray57",
"2. c #939393",
"3. c gray59",
"4. c #979797",
"5. c gray60",
"6. c #9A9A9A",
"7. c #9B9B9B",
"8. c #9D9D9D",
"9. c gray62",
"0. c #9F9F9F",
"q. c #A0A0A0",
"w. c gray63",
"e. c #A2A2A2",
"r. c gray64",
"t. c #A4A4A4",
"y. c #A5A5A5",
"u. c gray65",
"i. c #A7A7A7",
"p. c gray66",
"a. c #AAAAAA",
"s. c gray67",
"d. c #ACACAC",
"f. c gray68",
"g. c #AFAFAF",
"h. c gray69",
"j. c gray70",
"k. c #B6B6B6",
"l. c gray72",
"z. c #BCBCBC",
"x. c gray74",
"c. c gray",
"v. c gray75",
"b. c #C0C0C0",
"n. c #C1C1C1",
"m. c gray76",
"M. c #C5C5C5",
"N. c gray78",
"B. c #C8C8C8",
"V. c gray79",
"C. c #CACACA",
"Z. c #CBCBCB",
"A. c gray80",
"S. c #CDCDCD",
"D. c #CECECE",
"F. c gray81",
"G. c #D0D0D0",
"H. c gray82",
"J. c LightGray",
"K. c #D5D5D5",
"L. c #D7D7D7",
"P. c #D8D8D8",
"I. c gray85",
"U. c #DADADA",
"Y. c gray86",
"T. c gainsboro",
"R. c #DDDDDD",
"E. c gray87",
"W. c #DFDFDF",
"Q. c gray88",
"!. c #E1E1E1",
"~. c #E2E2E2",
"^. c gray89",
"/. c #E4E4E4",
"(. c gray90",
"). c #E6E6E6",
"_. c #E7E7E7",
"`. c gray91",
"'. c #E9E9E9",
"]. c #EAEAEA",
"[. c gray92",
"{. c #ECECEC",
"}. c gray93",
"|. c #EEEEEE",
" X c #EFEFEF",
".X c gray94",
"XX c #F1F1F1",
"oX c gray95",
"OX c #F3F3F3",
"+X c #F4F4F4",
"@X c gray96",
"#X c #F6F6F6",
"$X c gray97",
"%X c #F8F8F8",
"&X c #F9F9F9",
"*X c gray98",
"=X c #FBFBFB",
"-X c gray99",
";X c #FDFDFD",
":X c #FEFEFE",
">X c white",
/* pixels */
">X>X>X>X>X>X>X>X>X>X>X>X>X>X>X>X>X>X>X>X>X>X>X>X>X>X>X>X>X>X>X>X>X*X*X>X>X*X*X*X>X>X>X>X>X>X>X>X>X>X>X>X>X>X>X>X>X>X>X>X>X>X>X>X",
">X>X>X>X>X>X>X>X>X>X>X>X>X>X>X>X>X>X>X>X>X>X>X>X>X>X>X>X>X>X>X>X>X>X>X>X>X>X>X>X*X>X*X>X*X>X>X>X>X>X>X>X>X>X>X>X>X>X>X>X>X>X>X>X",
">X>X>X>X>X>X>X>X>X>X>X>X>X>X>X>X>X>X>X>X>X>X>X>X>X>X>X>X>X>X>X>X>X>X>X*X*X*X*X*X>X>X>X>X*X*X>X>X>X>X>X>X>X>X>X>X>X>X>X>X>X>X>X>X",
">X>X>X>X>X>X>X>X>X>X>X>X>X>X>X>X>X>X>X>X>X>X>X>X>X>X>X>X>X>X>X>X*X>X>X>X>X>X>X>X*X>X>X>X>X>X>X*X>X>X>X>X>X>X>X>X>X>X>X>X>X>X>X>X",
">X>X>X>X>X>X>X>X>X>X>X>X>X>X>X>X>X>X>X>X>X>X>X>X>X>X>X>X>X>X>X>X>X>X>X>X*X>X>X*X>X*X*X*X>X>X>X>X>X>X>X>X>X>X>X>X>X>X>X>X>X>X>X>X",
">X>X>X>X>X>X>X>X>X>X>X>X>X>X>X>X>X>X>X>X>X>X>X>X>X>X>X>X>X>X>X>X>X>X*X>X*X*X*X>X>X>X>X>X>X>X>X>X>X>X>X>X>X>X>X>X>X>X>X>X>X>X>X>X",
">X>X>X>X>X>X>X>X>X>X>X>X>X>X>X>X>X>X>X>X>X>X>X>X>X>X>X>X>X>X>X>X*X@X*X>X>XoX(.{.[.@X>X>X>X>X*X>X>X>X>X>X>X>X>X>X>X>X>X>X>X>X>X>X",
">X>X>X>X>X>X>X>X>X>X>X>X>X>X>X>X>X>X>X>X>X>X>X>X>X>X>X>X>X>X>X>X>X*X>X>XQ.g.&.| a.N.(.>X>X>X>X>X>X>X>X>X>X>X>X>X>X>X>X>X>X>X>X>X",
">X>X>X>X>X>X>X>X>X>X>X>X>X>X>X>X*X>X>X>X*X>X>X*X>X*X@X>X>X>X>X>X>X>X>X>XR.U . : . a &.g.@X>X@X>X>X>X>X>X>X>X>X>X>X>X>X>X>X>X>X>X",
">X>X>X>X>X>X>X>X>X>X>X>X>X>X>X>X>X>X>X>X>X>X>X>X>X>X>X>X>X*X>X>X>X>X*X>X@Xe.j . . . , j ,.F.@X*X>X>X>X>X>X>X>X>X>X>X>X>X>X>X>X>X",
">X>X>X>X>X>X>X>X>X>X>X>X>X>X>X>X>X*X@X>X*X*X*X>X>X>X>X>X>X*X>X>X>X>X>X*X>X{.=.q O . . . g ` Q.>X>X>X>X>X>X>X>X>X>X>X>X>X>X>X>X>X",
">X>X>X>X>X>X>X>X>X>X>X>X>X>X>X>X>X>X>X>X>X>X>X>X*X>X>X>X>X>X>X>X@X>X>X*X>X>XY.+.4 * . . . * 5.{.>X>X>X>X>X>X>X>X>X>X>X>X>X>X>X>X",
">X>X>X>X>X>X>X>X>X>X>X>X>X>X>X>X>X>X>X*X*X>X>X*X>X>X*X*X>X>X>X*X>X*X>X>X@X>X>XY.( 1 . O . . ( K.>X>X>X>X>X>X>X>X>X>X>X>X>X>X>X>X",
">X>X>X>X>X>X>X>X>X>X>X>X>X>X>X>X*X>X>X@X*X>X>X>X>X>X>X>X>X>X>X*X>X@X*X>X*X>X>X>XK.U * . * . ( Q.>X>X>X>X>X>X>X>X>X>X>X>X>X>X>X>X",
">X>X>X>X>X>X>X>X>X>X>X>X>X>X>X>X>X>X>X>X>X{.(.oX{.>X>X>X>X>X>X>X>X*X>X>X>X>X>X>X>X5.r . . . | (.>X>X>X>X>X>X>X>X>X>X>X>X>X>X>X>X",
">X>X>X>X>X>X>X>X>X>X>X>X>X>X>X>X>XoX*X>XoXj.5.e.Y.{.>X>X>X*X>X>X>X>X>X>X>X>X>X>X>XN.n . . . <.[.>X>X>X>X>X>X>X>X>X>X>X>X>X>X>X>X",
">X>X>X>X>X>X>X>X>X>X>X>X>X>X>X>X>X@X>X>X@X..7 . N g.@X>X>X>X@X>X>X>X>X>X>X>X>X>X>XJ.n O . . &.[.>X>X>X>X>X>X>X>X>X>X>X>X>X>X>X>X",
">X>X>X>X>X>X>X>X>X>X>X>X>X>X>X>X>X>X>X*X>XN.S . O j <.Q.>X>X>XoX>X>X>X>X>X>X>X>X>XF.n O . . +.[.>X>X>X>X>X>X>X>X>X>X>X>X>X>X>X>X",
">X>X>X>X>X>X>X>X>X>X>X>X>X>X>X>X>X>X*X>X>X>X{ : . . j e.{.>X>X>X>X>X>X>X>X>X>X>X>XF.v O . . &.[.>X>X>X>X>X>X>X>X>X>X>X>X>X>X>X>X",
">X>X>X>X>X>X>X>X>X>X>X>X>X>X>X>X>X>X@X>X>X>Xu.a O . . N l.oX@X>X>X>X>X>X>X>X>X>X>XF.v O . O &.[.>X>X>X>X>X>X>X>X>X>X>X>X>X>X>X>X",
">X>X>X>X>X>X>X>X>X>X>X>X>X>X>X>X>X@X>X>X*XoXQ.C . : . . { Y.*X>X>X>X>X>X>X>X>X>X>XF.v . . . &.[.>X>X>X>X>X>X>X>X>X>X>X>X>X>X>X>X",
">X>X>X>X>X>X>X>X>X>X>X>X>X>X>X>X>X>X>X>X>X>XoXC . O . . C V.>X*X>X>X>X>X>X>X>X>X>XV.v . . . &.[.>X>X>X>X>X>X>X>X>X>X>X>X>X>X>X>X",
">X>X>X>X>X>X>X>X>X>X>X>X>X>X>X>X>X>X>X@X>X>Xa.g . . . 4 ( J.>X@X>X>X>X>X>X>X>X>X>XF.j O . . &.{.>X>X>X>X>X>X>X>X>X>X>X>X>X>X>X>X",
">X>X>X>X>X>X>X>X>X>X>X>X>X>X>X>X>X>X>X*X>X{.J 7 . O : W F.>X*X>X>X>X>X>X>X>X>X>X>XV.v . . . &.{.>X>X>X>X>X>X>X>X>X>X>X>X>X>X>X>X",
">X>X>X>X>X>X>X>X>X>X*X*X>X>X>X>XoX>X>X*X{.,.4 . . a | (.*X>X>X*X>X*X>X>X>X>XoXJ.x.{ q . . . O.oX>X>X>X>X>X>X>X>X>X>X>X>X>X>X>X>X",
">X>X>X>X>X>X>X>XoX>X>X>X>X>X*X*X>XoX>X[.=.r . . q &.R.*X{.>X>X>X>X(.K.F.x.u.+.W 7 : . O * O O.[.>X>X>X>X>X>X>X>X>X>X>X>X>X>X>X>X",
">X>X>X>X>X>X>X>X>X>X>X*X*X>X>X>X@X>X{.&.a O . . q { Y.>X>X@X*X>X8.| W S a : O O . O . . . . +.@X>X>X>X>X>X>X>X>X>X>X>X>X>X>X>X>X",
">X>X>X>X>X>X>X>X>X@XoX>X>X*X*X>X>XK...r O * 1 1 . * W j.>X>XoX@X| a . . * O . . . 1 O . . . &.{.>X>X>X>X>X>X>X>X>X>X>X>X>X>X>X>X",
">X>X>X>X>X>X>X>X>X*X>X*X>X>X>X*XY.( 7 O : ^ =.F : . * v a.*X>X@XR.=.N 4 . . , a U W 4 . O . =.(.>X>X>X>X>X>X>X>X>X>X>X>X>X>X>X>X",
">X>X>X>X>X>X>X>X>X>X>XoX>X>X[.j.C 7 1 a | (.@Xa.g . . . Y K.>X>X>X@XV.&.n a ` a.{.N.N . . . ,.{.>X>X>X>X>X>X>X>X>X>X>X>X>X>X>X>X",
">X>X>X>X>X>X>X>XoX>X>X>X*XR.,.C * r U e.{.>X@X@XY * . . g l.*X>X*X*X>X@XQ.Q.@X>X>XY.C . O . &.(.>X>X>X>X>X>X>X>X>X>X>X>X>X>X>X>X",
">X>X>X>X>X>X>X>X>X>X@XY.e.^ n g ^ ,.Q.>X>X>X>X@X| q . . 1 n.>X>X>X>X>X>X*X>X>X*X>XK.n . . . &.[.>X>X>X>X>X>X>X>X>X>X>X>X>X>X>X>X",
">X>X>X>X>X>X>X>X>X>X(.u.( W ,.N.>X>X>X>X>X>X>X>Xj.g . . 4 n.*X*X>X>X>X>X>X>X>X>X>XR.n . . . +.{.>X>X>X>X>X>X>X>X>X>X>X>X>X>X>X>X",
">X>X>X>X>X>X>X>X*X@XoX{.{.oX*X>X>X>X>X>X>X>X>X>XR.C O . q n.>X>X>X>X>X>X>X>X>X>X>XQ.n . . . &.{.>X>X>X>X>X>X>X>X>X>X>X>X>X>X>X>X",
">X>X>X>X>X>X>X>X>X>X>X>X>X>X>X*X>X>X>X>X>X>X>X>X*XJ O . a l.*X>X>X>X>X>X>X>X>X>X>XQ.n O . . &.{.>X>X>X>X>X>X>X>X>X>X>X>X>X>X>X>X",
">X>X>X>X>X>X>X>X>X>X>X*X@X@X>X>X>X>X>X>X>X>X>X>X>X! : . v n.>X*X>X>X>X>X>X>X>X>X>XQ.N . . . +.[.>X>X>X>X>X>X>X>X>X>X>X>X>X>X>X>X",
">X>X>X>X>X>X>X>X>X>X*X>X>X>X>X>X>X>X>X>X>X>X>X>X>X| q . C F.>X*X>X>X>X>X>X>X>X>X>XQ.N . . . +.[.>X>X>X>X>X>X>X>X>X>X>X>X>X>X>X>X",
">X>X>X>X>X>X>X>X>X>X>X>X>X>X*XoX>X>X>X>X>X>X>X>X>X,.r . Y J.>X>X>X>X>X>X>X>X>X>X>X(.N . . . &.[.>X>X>X>X>X>X>X>X>X>X>X>X>X>X>X>X",
">X>X>X>X>X>X>X>X*X>X>X>X*X*X>X>X>X>X>X>X>X>X>X>X>X8.a . ..R.>X>X>X>X>X>X>X>X>X>X>X[.N . . . &.[.>X>X>X>X>X>X>X>X>X>X>X>X>X>X>X>X",
">X>X>X>X>X>X>X>X>X>X>X>X>X>X>X*X>X>X>X>X>X>X>X>X>Xu.a : 8.{.>X>X>X>X>X>X>X>X>X>X>X[.C . . . &.[.>X>X>X>X>X>X>X>X>X>X>X>X>X>X>X>X",
">X>X>X>X>X>X>X>X>X>X>X>X>X>X>X>X>X>X>X>X>X>X>X>X>Xk.7 C J.>X>X*X>X>X>X>X>X>X>X>X>X{.S * . . <.{.>X>X>X>X>X>X>X>X>X>X>X>X>X>X>X>X",
">X>X>X>X>X>X>X>X>X>X>X>X>X>X>X>X>X>X>X>X>X>X>X>X>XF.! ..R.*X>X>X>X>X>X>X>X>X>X>X>X{.C O . . 4.{.>X>X>X>X>X>X>X>X>X>X>X>X>X>X>X>X",
">X>X>X>X>X>X>X>X>X>X>X>X>X>X>X>X>X>X>X>X>X>X>X>X>X{.k.F.>X*X>X>X>X>X>X>X>X>X>X>X>X{.C O . . 5.oX>X>X>X>X>X>X>X>X>X>X>X>X>X>X>X>X",
">X>X>X>X>X>X>X>X>X>X>X>X>X>X>X>X>X>X>X>X>X>X>X>X>X>XoX>X>X*X>X>X>X>X>X>X>X>X>X>X>X@XC O . . 5.*X>X>X>X>X>X>X>X>X>X>X>X>X>X>X>X>X",
">X>X>X>X>X>X>X>X>X>X>X>X>X>X>X>X>X>X>X>X>X>X>X>X>X>X>X>X>X@X>X>X>X>X>X>X>X>X>X>X>X@XF O . . e.*X>X>X>X>X>X>X>X>X>X>X>X>X>X>X>X>X",
">X>X>X>X>X>X>X>X>X>X>X>X>X>X>X>X>X>X>X>X>X>X>X>X>X>X>X>X>X*X>X>X>X>X>X>X>X>X>X>X>X*XJ . . : g.>X>X>X>X>X>X>X>X>X>X>X>X>X>X>X>X>X",
">X>X>X>X>X>X>X>X>X>X>X>X>X>X>X>X>X>X>X>X>X>X>X>X>X>X>X*X>X>X>X>X>X>X>X>X>X>X>X>X>X*XJ . . q x.>X>X>X>X>X>X>X>X>X>X>X>X>X>X>X>X>X",
">X>X>X>X>X>X>X>X>X>X>X>X>X>X>X>X>X>X>X>X>X>X>X>X*X>X>X*X>X>X@X>X>X>X>X>X>X>X>X>X>X>XF . O j V.>X>X>X>X>X>X>X>X>X>X>X>X>X>X>X>X>X",
">X>X>X>X>X>X>X>X>X>X>X>X>X>X>X>X>X>X>X>X>X>X>X>X>X>X>X>X>X>X>X>X>X>X>X>X>X>X>X>X@X>XU . . U F.>X>X>X>X>X>X>X>X>X>X>X>X>X>X>X>X>X",
">X>X>X>X>X>X>X>X>X>X>X>X>X>X>X>X>X>X>X>X>X>X>X>X>X>X>X>X>X>X>X>X>X>X>X>X>X>X>X>X>X>XJ . . | (.>X>X>X>X>X>X>X>X>X>X>X>X>X>X>X>X>X",
">X>X>X>X>X>X>X>X>X>X>X>X>X>X>X>X>X>X>X>X>X>X>X>X>X>X>X>X>X>X>X>X>X>X>X>X>X>X>X>X>X*XF . O e.oX>X>X>X>X>X>X>X>X>X>X>X>X>X>X>X>X>X",
">X>X>X>X>X>X>X>X>X>X>X>X>X>X>X>X>X>X>X>X>X>X>X>X>X>X>X>X>X>X>X>X>X>X>X>X>X>X>X>X>X>XW . j n.@X>X>X>X>X>X>X>X>X>X>X>X>X>X>X>X>X>X",
">X>X>X>X>X>X>X>X>X>X>X>X>X>X>X>X>X>X>X>X>X>X>X>X>X>X>X>X>X>X>X>X>X>X>X>X>X>X>X>X>X>XW . { Q.>X>X>X>X>X>X>X>X>X>X>X>X>X>X>X>X>X>X",
">X>X>X>X>X>X>X>X>X>X>X>X>X>X>X>X>X>X>X>X>X>X>X>X>X>X>X>X>X>X>X>X>X>X>X>X>X>X>X>X>X@XY 4 g.@X>X>X>X>X>X>X>X>X>X>X>X>X>X>X>X>X>X>X",
">X>X>X>X>X>X>X>X>X>X>X>X>X>X>X>X>X>X>X>X>X>X>X>X>X>X>X>X>X>X>X>X>X>X>X>X>X>X>X>X>X@X| ] Y.*X>X*X>X>X>X>X>X>X>X>X>X>X>X>X>X>X>X>X",
">X>X>X>X>X>X>X>X>X>X>X>X>X>X>X>X>X>X>X>X>X>X>X>X>X>X>X>X>X>X>X>X>X>X>X>X>X>X>X>X>X>X8.V.oX@X>X*X>X>X>X>X>X>X>X>X>X>X>X>X>X>X>X>X",
">X>X>X>X>X>X>X>X>X>X>X>X>X>X>X>X>X>X>X>X>X>X>X>X>X>X>X>X>X>X>X>X>X>X>X>X>X>X>X>X>X>X>X>X>X>X>X>X>X>X>X>X>X>X>X>X>X>X>X>X>X>X>X>X",
">X>X>X>X>X>X>X>X>X>X>X>X>X>X>X>X>X>X>X>X>X>X>X>X>X>X>X>X>X>X>X>X>X>X>X>X>X>X>X>X>X>X>X>X>X>X>X>X>X>X>X>X>X>X>X>X>X>X>X>X>X>X>X>X",
">X>X>X>X>X>X>X>X>X>X>X>X>X>X>X>X>X>X>X>X>X>X>X>X>X>X>X>X>X>X>X>X>X>X>X>X>X>X>X>X>X>X>X>X>X>X>X>X>X>X>X>X>X>X>X>X>X>X>X>X>X>X>X>X",
">X>X>X>X>X>X>X>X>X>X>X>X>X>X>X>X>X>X>X>X>X>X>X>X>X>X>X>X>X>X>X>X>X>X>X>X>X>X>X>X>X>X>X>X>X>X>X>X>X>X>X>X>X>X>X>X>X>X>X>X>X>X>X>X",
">X>X>X>X>X>X>X>X>X>X>X>X>X>X>X>X>X>X>X>X>X>X>X>X>X>X>X>X>X>X>X>X>X>X>X>X>X>X>X>X>X>X>X>X>X>X>X>X>X>X>X>X>X>X>X>X>X>X>X>X>X>X>X>X",
">X>X>X>X>X>X>X>X>X>X>X>X>X>X>X>X>X>X>X>X>X>X>X>X>X>X>X>X>X>X>X>X>X>X>X>X>X>X>X>X>X>X>X>X>X>X>X>X>X>X>X>X>X>X>X>X>X>X>X>X>X>X>X>X",
">X>X>X>X>X>X>X>X>X>X>X>X>X>X>X>X>X>X>X>X>X>X>X>X>X>X>X>X>X>X>X>X>X>X>X>X>X>X>X>X>X>X>X>X>X>X>X>X>X>X>X>X>X>X>X>X>X>X>X>X>X>X>X>X",
">X>X>X>X>X>X>X>X>X>X>X>X>X>X>X>X>X>X>X>X>X>X>X>X>X>X>X>X>X>X>X>X>X>X>X>X>X>X>X>X>X>X>X>X>X>X>X>X>X>X>X>X>X>X>X>X>X>X>X>X>X>X>X>X"
};
